<svg width="590" height="394" viewBox="0 0 590 394" fill="none" xmlns="http://www.w3.org/2000/svg">
<path d="M227.011 95.6458H200.904V102.564H227.011V95.6458Z" fill="#EBEBEB"/>
<path d="M215.972 109.851C215.969 109.848 215.967 109.806 215.964 109.725C215.962 109.633 215.959 109.516 215.955 109.37C215.951 109.045 215.944 108.591 215.936 108.009C215.925 106.815 215.91 105.098 215.891 102.933L215.972 103.014C210.011 103.026 200.531 103.045 189.866 103.066C189.925 103.007 189.732 103.199 189.998 102.933V103.82C189.998 104.115 189.997 104.409 189.997 104.702C189.997 105.289 189.997 105.871 189.997 106.448C189.996 107.603 189.995 108.739 189.995 109.851L189.865 109.721C197.299 109.744 203.804 109.765 208.469 109.78C210.793 109.796 212.658 109.808 213.961 109.817C214.595 109.824 215.091 109.83 215.446 109.834L215.834 109.843C215.923 109.845 215.969 109.848 215.972 109.851C215.975 109.854 215.934 109.857 215.851 109.859C215.754 109.862 215.632 109.864 215.479 109.868C215.13 109.872 214.643 109.878 214.022 109.885C212.726 109.894 210.872 109.906 208.56 109.922C203.872 109.937 197.335 109.958 189.865 109.981L189.735 109.982L189.734 109.851C189.734 108.739 189.733 107.603 189.732 106.448C189.732 105.871 189.732 105.289 189.732 104.702C189.732 104.409 189.732 104.115 189.732 103.82L189.731 103.376V102.933C189.998 102.666 189.806 102.859 189.866 102.799C200.531 102.821 210.011 102.84 215.972 102.852L216.053 102.852L216.053 102.933C216.034 105.118 216.018 106.851 216.008 108.057C216 108.631 215.993 109.079 215.988 109.4C215.985 109.54 215.982 109.652 215.98 109.741C215.977 109.817 215.975 109.854 215.972 109.851Z" fill="#E0E0E0"/>
<path d="M423.729 37.666H397.621V44.5843H423.729V37.666Z" fill="#EBEBEB"/>
<path d="M412.689 51.8713C412.687 51.8686 412.684 51.8263 412.681 51.7456C412.679 51.653 412.676 51.5364 412.673 51.3907C412.668 51.0652 412.662 50.6112 412.653 50.0292C412.643 48.8349 412.627 47.1179 412.608 44.953L412.689 45.034C406.728 45.0459 397.248 45.0649 386.584 45.0862C386.642 45.0268 386.449 45.2191 386.715 44.9532V45.8399C386.715 46.1351 386.715 46.4293 386.715 46.7225C386.715 47.3089 386.715 47.891 386.714 48.4684C386.714 49.6231 386.713 50.7588 386.712 51.8712L386.582 51.741C394.016 51.7646 400.521 51.7853 405.187 51.8002C407.511 51.8159 409.376 51.8285 410.678 51.8374C411.312 51.8447 411.808 51.8504 412.163 51.8545L412.552 51.8629C412.64 51.8657 412.686 51.8684 412.689 51.8713C412.692 51.8741 412.651 51.8769 412.568 51.8798C412.472 51.8819 412.349 51.8846 412.196 51.8881C411.848 51.8922 411.361 51.898 410.739 51.9052C409.444 51.9141 407.589 51.9267 405.278 51.9424C400.589 51.9572 394.052 51.9779 386.582 52.0017L386.452 52.002L386.452 51.8712C386.451 50.7588 386.45 49.6231 386.45 48.4684C386.45 47.891 386.449 47.3089 386.449 46.7225C386.449 46.4293 386.449 46.1351 386.449 45.8399L386.449 45.3963V44.9532C386.715 44.6865 386.524 44.8792 386.584 44.8198C397.248 44.841 406.728 44.86 412.689 44.8719L412.771 44.8721L412.77 44.953C412.751 47.1384 412.736 48.8717 412.725 50.0774C412.717 50.6517 412.711 51.0996 412.706 51.4207C412.702 51.5605 412.7 51.6725 412.697 51.7614C412.695 51.837 412.692 51.874 412.689 51.8713Z" fill="#E0E0E0"/>
<path d="M541.828 184.087H515.721V191.005H541.828V184.087Z" fill="#EBEBEB"/>
<path d="M530.789 198.292C530.786 198.29 530.783 198.247 530.781 198.167C530.778 198.074 530.776 197.957 530.772 197.812C530.767 197.486 530.761 197.032 530.752 196.45C530.742 195.256 530.727 193.539 530.708 191.374L530.789 191.455C524.827 191.467 515.347 191.486 504.683 191.507C504.742 191.448 504.549 191.64 504.814 191.374V191.595L504.814 191.817V192.261C504.814 192.556 504.814 192.85 504.814 193.144C504.814 193.73 504.814 194.312 504.814 194.89C504.813 196.044 504.812 197.18 504.811 198.292L504.681 198.162C512.116 198.186 518.621 198.207 523.286 198.221C525.61 198.237 527.475 198.25 528.778 198.259C529.411 198.266 529.908 198.272 530.263 198.276L530.651 198.284C530.739 198.287 530.786 198.29 530.789 198.292C530.791 198.295 530.75 198.298 530.668 198.301C530.571 198.303 530.449 198.306 530.295 198.309C529.947 198.313 529.46 198.319 528.838 198.326C527.543 198.335 525.688 198.348 523.377 198.364C518.689 198.378 512.152 198.399 504.681 198.423L504.551 198.423L504.551 198.292C504.55 197.18 504.55 196.044 504.549 194.89C504.549 194.312 504.549 193.73 504.549 193.144C504.548 192.85 504.548 192.556 504.548 192.261L504.548 191.817V191.374C504.814 191.108 504.623 191.3 504.683 191.241C515.347 191.262 524.827 191.281 530.789 191.293L530.87 191.293L530.87 191.374C530.85 193.56 530.835 195.293 530.825 196.499C530.816 197.073 530.81 197.521 530.805 197.842C530.802 197.982 530.799 198.094 530.797 198.183C530.794 198.258 530.791 198.295 530.789 198.292Z" fill="#E0E0E0"/>
<path d="M183.341 172.229H185.544C191.555 172.229 196.434 177.116 196.434 183.137V199.322H172.451V183.137C172.451 177.116 177.33 172.229 183.341 172.229Z" fill="#F5F5F5"/>
<path d="M148.716 172.229H150.92C156.93 172.229 161.809 177.116 161.809 183.137V199.322H137.826V183.137C137.826 177.116 142.705 172.229 148.716 172.229Z" fill="#F5F5F5"/>
<path d="M214.912 172.229H217.116C223.126 172.229 228.006 177.116 228.006 183.137V199.322H204.022V183.137C204.022 177.116 208.902 172.229 214.912 172.229Z" fill="#F5F5F5"/>
<path d="M246.484 172.229H248.688C254.698 172.229 259.578 177.116 259.578 183.137V199.322H235.594V183.137C235.594 177.116 240.474 172.229 246.484 172.229Z" fill="#F5F5F5"/>
<path d="M278.056 172.229H280.26C286.27 172.229 291.149 177.116 291.149 183.137V199.322H267.166V183.137C267.166 177.116 272.045 172.229 278.056 172.229Z" fill="#F5F5F5"/>
<path d="M309.628 172.229H311.831C317.842 172.229 322.721 177.116 322.721 183.137V199.322H298.738V183.137C298.738 177.116 303.617 172.229 309.628 172.229Z" fill="#F5F5F5"/>
<path d="M134.054 186.871H136.257C142.268 186.871 147.147 191.759 147.147 197.779V213.964H123.164V197.779C123.164 191.759 128.043 186.871 134.054 186.871Z" fill="#FAFAFA"/>
<path d="M165.742 186.871H167.946C173.956 186.871 178.835 191.759 178.835 197.779V213.964H154.852V197.779C154.852 191.759 159.731 186.871 165.742 186.871Z" fill="#FAFAFA"/>
<path d="M198.06 186.871H200.264C206.274 186.871 211.154 191.759 211.154 197.779V213.964H187.171V197.779C187.171 191.759 192.05 186.871 198.06 186.871Z" fill="#FAFAFA"/>
<path d="M230.379 186.871H232.583C238.593 186.871 243.473 191.759 243.473 197.779V213.964H219.489V197.779C219.489 191.759 224.369 186.871 230.379 186.871Z" fill="#FAFAFA"/>
<path d="M262.698 186.871H264.902C270.912 186.871 275.792 191.759 275.792 197.779V213.964H251.808V197.779C251.808 191.759 256.688 186.871 262.698 186.871Z" fill="#FAFAFA"/>
<path d="M295.017 186.871H297.221C303.231 186.871 308.11 191.759 308.11 197.779V213.964H284.127V197.779C284.127 191.759 289.006 186.871 295.017 186.871Z" fill="#FAFAFA"/>
<path d="M120.178 197.614H122.382C128.393 197.614 133.272 202.502 133.272 208.523V213.964H109.289V208.523C109.289 202.502 114.168 197.614 120.178 197.614Z" fill="#F5F5F5"/>
<path d="M150.058 197.614H152.262C158.272 197.614 163.152 202.502 163.152 208.523V213.964H139.168V208.523C139.168 202.502 144.048 197.614 150.058 197.614Z" fill="#F5F5F5"/>
<path d="M181.473 197.614H183.677C189.687 197.614 194.567 202.502 194.567 208.523V213.964H170.583V208.523C170.583 202.502 175.463 197.614 181.473 197.614Z" fill="#F5F5F5"/>
<path d="M212.888 197.614H215.092C221.102 197.614 225.982 202.502 225.982 208.523V213.964H201.998V208.523C201.998 202.502 206.878 197.614 212.888 197.614Z" fill="#F5F5F5"/>
<path d="M244.303 197.614H246.507C252.517 197.614 257.397 202.502 257.397 208.523V213.964H233.413V208.523C233.413 202.502 238.293 197.614 244.303 197.614Z" fill="#F5F5F5"/>
<path d="M275.718 197.614H277.922C283.932 197.614 288.812 202.502 288.812 208.523V213.964H264.828V208.523C264.828 202.502 269.708 197.614 275.718 197.614Z" fill="#F5F5F5"/>
<path d="M307.133 197.614H309.337C315.347 197.614 320.227 202.502 320.227 208.523V213.964H296.243V208.523C296.243 202.502 301.123 197.614 307.133 197.614Z" fill="#F5F5F5"/>
<path d="M342.714 171.676H344.918C350.928 171.676 355.808 176.564 355.808 182.584V199.874H331.824V182.584C331.824 176.564 336.704 171.676 342.714 171.676Z" fill="#F5F5F5"/>
<path d="M375.362 171.676H377.566C383.576 171.676 388.456 176.564 388.456 182.584V199.874H364.472V182.584C364.472 176.564 369.352 171.676 375.362 171.676Z" fill="#F5F5F5"/>
<path d="M408.011 171.676H410.214C416.225 171.676 421.104 176.564 421.104 182.584V199.874H397.121V182.584C397.121 176.564 402 171.676 408.011 171.676Z" fill="#F5F5F5"/>
<path d="M440.659 171.676H442.863C448.873 171.676 453.752 176.564 453.752 182.584V199.874H429.769V182.584C429.769 176.564 434.648 171.676 440.659 171.676Z" fill="#F5F5F5"/>
<path d="M295.295 186.871H297.498C303.509 186.871 308.388 191.759 308.388 197.779V213.964H284.405V197.779C284.405 191.759 289.284 186.871 295.295 186.871Z" fill="#FAFAFA"/>
<path d="M326.983 186.871H329.187C335.197 186.871 340.076 191.759 340.076 197.779V213.964H316.093V197.779C316.093 191.759 320.972 186.871 326.983 186.871Z" fill="#FAFAFA"/>
<path d="M359.301 186.871H361.505C367.516 186.871 372.395 191.759 372.395 197.779V213.964H348.412V197.779C348.412 191.759 353.291 186.871 359.301 186.871Z" fill="#FAFAFA"/>
<path d="M391.62 186.871H393.824C399.834 186.871 404.714 191.759 404.714 197.779V213.964H380.73V197.779C380.73 191.759 385.61 186.871 391.62 186.871Z" fill="#FAFAFA"/>
<path d="M423.939 186.871H426.143C432.153 186.871 437.033 191.759 437.033 197.779V213.964H413.049V197.779C413.049 191.759 417.929 186.871 423.939 186.871Z" fill="#FAFAFA"/>
<path d="M456.258 186.871H458.462C464.472 186.871 469.351 191.759 469.351 197.779V213.964H445.368V197.779C445.368 191.759 450.247 186.871 456.258 186.871Z" fill="#FAFAFA"/>
<path d="M281.419 197.614H283.623C289.634 197.614 294.513 202.502 294.513 208.523V213.964H270.53V208.523C270.53 202.502 275.409 197.614 281.419 197.614Z" fill="#F5F5F5"/>
<path d="M311.299 197.614H313.503C319.513 197.614 324.393 202.502 324.393 208.523V213.964H300.409V208.523C300.409 202.502 305.289 197.614 311.299 197.614Z" fill="#F5F5F5"/>
<path d="M342.714 197.614H344.918C350.928 197.614 355.808 202.502 355.808 208.523V213.964H331.824V208.523C331.824 202.502 336.704 197.614 342.714 197.614Z" fill="#F5F5F5"/>
<path d="M374.129 197.614H376.333C382.343 197.614 387.223 202.502 387.223 208.523V213.964H363.239V208.523C363.239 202.502 368.119 197.614 374.129 197.614Z" fill="#F5F5F5"/>
<path d="M405.544 197.614H407.748C413.758 197.614 418.638 202.502 418.638 208.523V213.964H394.654V208.523C394.654 202.502 399.534 197.614 405.544 197.614Z" fill="#F5F5F5"/>
<path d="M436.959 197.614H439.163C445.173 197.614 450.053 202.502 450.053 208.523V213.964H426.069V208.523C426.069 202.502 430.949 197.614 436.959 197.614Z" fill="#F5F5F5"/>
<path d="M468.374 197.614H470.578C476.588 197.614 481.468 202.502 481.468 208.523V213.964H457.484V208.523C457.484 202.502 462.364 197.614 468.374 197.614Z" fill="#F5F5F5"/>
<path d="M118.463 54.1487C118.461 54.1459 118.458 54.1035 118.455 54.023L118.447 53.6681C118.442 53.3426 118.436 52.8885 118.427 52.3066C118.417 51.1123 118.401 49.3952 118.382 47.2304L118.463 47.3114C112.502 47.3233 103.022 47.3423 92.3576 47.3635C92.4164 47.3042 92.2235 47.4965 92.4891 47.2304V47.4514L92.489 47.6737V48.1173C92.489 48.4124 92.489 48.7067 92.4889 48.9998C92.4887 49.5862 92.4886 50.1683 92.4883 50.7457C92.4876 51.9004 92.4868 53.0362 92.4861 54.1486L92.3562 54.0183C99.7902 54.0419 106.295 54.0626 110.961 54.0775C113.285 54.0933 115.15 54.1059 116.452 54.1147C117.086 54.122 117.582 54.1277 117.937 54.1318L118.326 54.1403C118.414 54.1431 118.461 54.1458 118.463 54.1487C118.466 54.1514 118.425 54.1543 118.342 54.1571C118.246 54.1592 118.123 54.162 117.97 54.1655C117.622 54.1696 117.135 54.1753 116.513 54.1826C115.218 54.1914 113.363 54.2041 111.052 54.2197C106.363 54.2346 99.8265 54.2553 92.3562 54.2789L92.226 54.2793L92.226 54.1486C92.2252 53.0362 92.2245 51.9004 92.2238 50.7457C92.2236 50.1683 92.2234 49.5862 92.2232 48.9998C92.2231 48.7067 92.2231 48.4124 92.2231 48.1173L92.223 47.6737V47.2304C92.4892 46.9639 92.2977 47.1566 92.3576 47.0971C103.022 47.1184 112.502 47.1374 118.463 47.1493L118.545 47.1494L118.544 47.2304C118.525 49.4157 118.51 51.1491 118.499 52.3548C118.491 52.929 118.485 53.3769 118.48 53.6981L118.471 54.0388C118.469 54.1143 118.466 54.1514 118.463 54.1487Z" fill="#E0E0E0"/>
<path d="M450.441 100.563C450.438 100.561 450.435 100.518 450.432 100.438C450.43 100.345 450.428 100.228 450.424 100.083C450.419 99.7574 450.413 99.3033 450.404 98.7214C450.394 97.5271 450.379 95.81 450.36 93.6452L450.441 93.7262C444.479 93.7381 434.999 93.7571 424.335 93.7783C424.394 93.719 424.201 93.9113 424.466 93.6452V93.8662L424.466 94.0885V94.532C424.466 94.8272 424.466 95.1215 424.466 95.4146C424.466 96.001 424.466 96.5831 424.466 97.1605C424.465 98.3152 424.464 99.4509 424.463 100.563L424.333 100.433C431.768 100.457 438.273 100.477 442.938 100.492C445.262 100.508 447.127 100.521 448.43 100.53C449.063 100.537 449.559 100.543 449.915 100.547C450.075 100.55 450.202 100.553 450.303 100.555C450.391 100.558 450.438 100.561 450.441 100.563C450.443 100.566 450.402 100.569 450.32 100.572C450.223 100.574 450.101 100.577 449.947 100.58C449.599 100.584 449.112 100.59 448.49 100.597C447.195 100.606 445.34 100.619 443.029 100.634C438.341 100.649 431.804 100.67 424.333 100.694L424.203 100.694L424.203 100.563C424.202 99.4509 424.202 98.3152 424.201 97.1605C424.201 96.5831 424.201 96.001 424.2 95.4146C424.2 95.1215 424.2 94.8272 424.2 94.532L424.2 94.0885V93.6452C424.466 93.3787 424.275 93.5714 424.335 93.5119C434.999 93.5332 444.479 93.5522 450.441 93.5641L450.522 93.5642L450.522 93.6452C450.502 95.8305 450.487 97.5639 450.477 98.7696C450.468 99.3438 450.462 99.7917 450.457 100.113C450.454 100.253 450.451 100.365 450.449 100.454C450.446 100.529 450.443 100.566 450.441 100.563Z" fill="#E0E0E0"/>
<path d="M83.5403 194.722C83.5375 194.719 83.535 194.677 83.5322 194.596C83.53 194.503 83.5272 194.387 83.5237 194.241C83.5191 193.916 83.5125 193.461 83.5041 192.88C83.4937 191.685 83.4784 189.968 83.4594 187.803L83.5402 187.884C77.5792 187.896 68.099 187.915 57.4346 187.936C57.4934 187.877 57.3004 188.07 57.5661 187.803V188.024L57.566 188.247V188.69L57.5659 189.573C57.5657 190.159 57.5656 190.741 57.5653 191.319C57.5646 192.473 57.5638 193.609 57.5631 194.722L57.4331 194.591C64.8673 194.615 71.3722 194.636 76.0379 194.651C78.3618 194.666 80.2268 194.679 81.5293 194.688C82.163 194.695 82.6592 194.701 83.0143 194.705C83.1742 194.708 83.302 194.711 83.4027 194.713C83.491 194.716 83.5375 194.719 83.5403 194.722C83.5431 194.724 83.5022 194.727 83.4194 194.73C83.3229 194.732 83.2002 194.735 83.0469 194.738C82.6986 194.743 82.2117 194.748 81.5901 194.756C80.2946 194.764 78.4399 194.777 76.1286 194.793C71.4402 194.808 64.9035 194.828 57.4331 194.852L57.303 194.852L57.3029 194.722C57.3022 193.609 57.3015 192.473 57.3007 191.319C57.3006 190.741 57.3003 190.159 57.3002 189.573L57.3 188.69L57.2999 188.247V187.803C57.5661 187.537 57.3747 187.73 57.4346 187.67C68.099 187.691 77.5792 187.71 83.5402 187.722L83.6219 187.722L83.6213 187.803C83.6021 189.989 83.587 191.722 83.5765 192.928C83.5682 193.502 83.5615 193.95 83.5568 194.271C83.5534 194.411 83.5506 194.523 83.5483 194.612C83.5457 194.687 83.543 194.724 83.5403 194.722Z" fill="#E0E0E0"/>
<path d="M531.453 59.9653C531.45 59.9626 531.447 59.9202 531.445 59.8396L531.436 59.4847C531.432 59.1592 531.425 58.7052 531.417 58.1232C531.406 56.9289 531.391 55.2119 531.372 53.047L531.453 53.128C525.492 53.1399 516.011 53.1589 505.347 53.1802C505.406 53.1208 505.213 53.3131 505.479 53.0471V53.268L505.479 53.4903V53.9339C505.478 54.2291 505.478 54.5233 505.478 54.8165C505.478 55.4028 505.478 55.9849 505.478 56.5624C505.477 57.7171 505.476 58.8528 505.476 59.9653L505.346 59.835C512.78 59.8586 519.285 59.8793 523.95 59.8942C526.274 59.9099 528.139 59.9225 529.442 59.9314C530.075 59.9387 530.572 59.9444 530.927 59.9485C531.087 59.9519 531.214 59.9547 531.315 59.9568C531.404 59.9597 531.45 59.9624 531.453 59.9653C531.456 59.9681 531.415 59.9709 531.332 59.9738C531.235 59.9759 531.113 59.9787 530.959 59.9821C530.611 59.9862 530.124 59.9919 529.503 59.9992C528.207 60.008 526.352 60.0207 524.041 60.0363C519.353 60.0512 512.816 60.0719 505.346 60.0956L505.216 60.096L505.215 59.9653C505.215 58.8528 505.214 57.7171 505.213 56.5624C505.213 55.9849 505.213 55.4028 505.213 54.8165C505.213 54.5233 505.213 54.2291 505.212 53.9339V53.0471C505.479 52.7805 505.287 52.9733 505.347 52.9138C516.011 52.935 525.492 52.954 531.453 52.9659L531.534 52.9661L531.534 53.047C531.515 55.2324 531.499 56.9657 531.489 58.1715C531.481 58.7457 531.474 59.1936 531.469 59.5148C531.466 59.6545 531.463 59.7665 531.461 59.8554C531.458 59.931 531.455 59.968 531.453 59.9653Z" fill="#E0E0E0"/>
<path d="M74.1385 105.942H48.0312V112.86H74.1385V105.942Z" fill="#EBEBEB"/>
<path d="M273.474 153.093H247.367V160.011H273.474V153.093Z" fill="#EBEBEB"/>
<path d="M563.177 124.383H537.07V131.301H563.177V124.383Z" fill="#EBEBEB"/>
<path d="M63.0991 120.147C63.0963 120.145 63.0937 120.102 63.091 120.022L63.0825 119.667C63.0778 119.341 63.0713 118.887 63.0629 118.305C63.0524 117.111 63.0372 115.394 63.0181 113.229L63.099 113.31C57.1379 113.322 47.6578 113.341 36.9933 113.362C37.0522 113.303 36.8592 113.495 37.1248 113.229V113.45L37.1248 113.672V114.116C37.1248 114.411 37.1247 114.705 37.1246 114.999C37.1245 115.585 37.1243 116.167 37.1241 116.744C37.1234 117.899 37.1226 119.035 37.1219 120.147L36.9919 120.017C44.426 120.041 50.9309 120.061 55.5967 120.076C57.9206 120.092 59.7856 120.105 61.0882 120.113C61.7218 120.121 62.218 120.126 62.5731 120.131L62.9615 120.139C63.0498 120.142 63.0962 120.145 63.0991 120.147C63.1018 120.15 63.061 120.153 62.9782 120.156C62.8817 120.158 62.759 120.161 62.6057 120.164C62.2573 120.168 61.7705 120.174 61.1489 120.181C59.8534 120.19 57.9987 120.203 55.6874 120.219C50.999 120.233 44.4622 120.254 36.9919 120.278L36.8618 120.278L36.8617 120.147C36.8609 119.035 36.8602 117.899 36.8595 116.744C36.8593 116.167 36.8591 115.585 36.859 114.999C36.8589 114.705 36.8588 114.411 36.8588 114.116L36.8587 113.672V113.229C37.1249 112.963 36.9334 113.155 36.9933 113.096C47.6578 113.117 57.138 113.136 63.099 113.148L63.1806 113.148L63.18 113.229C63.1609 115.414 63.1457 117.148 63.1352 118.354C63.1269 118.928 63.1203 119.376 63.1156 119.697C63.1122 119.837 63.1094 119.949 63.1071 120.038C63.1044 120.113 63.1017 120.15 63.0991 120.147Z" fill="#E0E0E0"/>
<path d="M105.387 240.627V214.497L11.1231 309.668L9.89564 338.116L105.387 240.627Z" fill="#E0E0E0"/>
<path d="M485.949 240.627V214.497L577.301 309.668L578.214 338.116L485.949 240.627Z" fill="#E0E0E0"/>
<path d="M581.471 343.777H8.05712V370.493H581.471V343.777Z" fill="#E0E0E0"/>
<path d="M19.6218 370.493L46.1168 343.777H183.772L161.476 370.493H19.6218Z" fill="#EBEBEB"/>
<path d="M195.849 343.777C195.849 343.777 171.453 370.493 172.808 370.493C174.163 370.493 214.824 343.777 214.824 343.777H195.849Z" fill="#EBEBEB"/>
<path d="M340.823 353.432H247.977V361.578H340.823V353.432Z" fill="#EBEBEB"/>
<path d="M401.885 343.777L379.8 370.493H486.327L503.705 343.777H401.885Z" fill="#EBEBEB"/>
<path d="M555.906 223.604C555.906 223.717 439.085 223.809 295.013 223.809C150.89 223.809 34.0944 223.717 34.0944 223.604C34.0944 223.49 150.89 223.398 295.013 223.398C439.085 223.398 555.906 223.49 555.906 223.604Z" fill="#263238"/>
<path d="M482.372 214.497H110.308V240.627H482.372V214.497Z" fill="#335FFE"/>
<path d="M182.217 223.604H135.506V231.106H182.217V223.604Z" fill="white"/>
<path d="M370.544 223.604H323.833V231.106H370.544V223.604Z" fill="white"/>
<path d="M206.781 214.497L184.09 240.627H249.285L274.012 214.497H206.781Z" fill="white"/>
<path d="M285.137 214.497L265.502 237.214L305.472 214.497H285.137Z" fill="#455A64"/>
<path d="M277.338 240.627L302.664 225.143L291.322 240.627H277.338Z" fill="white"/>
<path d="M409.383 214.497L386.692 240.627H451.887L476.614 214.497H409.383Z" fill="white"/>
<path d="M482.372 220.19L467.883 236.954L482.372 228.047V220.19Z" fill="#455A64"/>
<g opacity="0.3">
<path d="M359.758 214.497L329.758 240.627H344.758L375.611 214.497H359.758Z" fill="white"/>
</g>
<g opacity="0.3">
<path d="M151.81 214.497L121.81 240.627H136.81L167.662 214.497H151.81Z" fill="white"/>
</g>
<g opacity="0.3">
<path d="M379.8 214.497L350.109 240.627H357.324C357.698 240.627 387.304 214.497 387.304 214.497H379.8Z" fill="white"/>
</g>
<path d="M127.009 214.497C127.143 214.497 110.308 235.898 110.308 235.898V214.497H127.009Z" fill="#455A64"/>
<path d="M482.372 240.71C482.37 240.207 482.348 231.829 482.3 214.497L482.372 214.568C427.169 214.588 281.384 214.641 110.446 214.702L110.651 214.498L110.651 214.548C110.603 223.51 110.556 232.404 110.512 240.711L110.308 240.505C318.3 240.62 480.201 240.709 482.372 240.71C480.202 240.711 318.3 240.8 110.308 240.915L110.102 240.915L110.103 240.709C110.147 232.402 110.194 223.508 110.241 214.546L110.241 214.496L110.242 214.292L110.446 214.292C281.384 214.353 427.169 214.405 482.372 214.425L482.443 214.425L482.443 214.497C482.396 231.829 482.373 240.208 482.372 240.71Z" fill="#263238"/>
<path d="M301.17 11.8789H288.83V56.288H301.17V11.8789Z" fill="#E0E0E0"/>
<path d="M369.821 40.7444H220.179V131.208H369.821V40.7444Z" fill="#455A64"/>
<path d="M369.821 131.208C369.821 131.208 369.81 130.649 369.804 129.578C369.8 128.502 369.794 126.914 369.786 124.837C369.777 120.677 369.763 114.562 369.746 106.715C369.726 91.0348 369.697 68.4381 369.661 40.7445L369.821 40.9044C329.383 40.9166 277.099 40.9324 220.19 40.9496H220.179L220.384 40.7445C220.378 72.7944 220.373 103.377 220.369 131.208L220.179 131.018C264.066 131.056 301.452 131.088 327.874 131.111C341.095 131.133 351.571 131.15 358.749 131.162C362.337 131.172 365.099 131.18 366.972 131.185C367.903 131.19 368.611 131.194 369.094 131.197C369.572 131.2 369.821 131.208 369.821 131.208C369.821 131.208 369.587 131.215 369.117 131.219C368.639 131.222 367.937 131.226 367.016 131.23C365.152 131.236 362.403 131.244 358.832 131.254C351.664 131.266 341.202 131.283 327.999 131.305C301.546 131.328 264.117 131.36 220.179 131.398L219.989 131.398L219.989 131.208C219.984 103.377 219.979 72.7944 219.974 40.7445V40.5393H220.19C277.099 40.5565 329.383 40.5723 369.821 40.5845L369.981 40.5846L369.981 40.7445C369.945 68.4797 369.916 91.1102 369.896 106.814C369.879 114.645 369.865 120.748 369.856 124.9C369.848 126.964 369.842 128.542 369.838 129.611C369.832 130.672 369.821 131.208 369.821 131.208Z" fill="#263238"/>
<path d="M242.114 47.1887V53.2488H240.714V50.7643H237.966V53.2488H236.565V47.1887H237.966V49.5781H240.714V47.1887H242.114Z" fill="white"/>
<path d="M243.168 50.2188C243.168 48.4182 244.569 47.085 246.478 47.085C248.38 47.085 249.789 48.4097 249.789 50.2188C249.789 52.028 248.38 53.3528 246.478 53.3528C244.569 53.3528 243.168 52.0196 243.168 50.2188ZM248.371 50.2188C248.371 49.0676 247.558 48.2796 246.478 48.2796C245.398 48.2796 244.585 49.0676 244.585 50.2188C244.585 51.3701 245.398 52.1581 246.478 52.1581C247.558 52.1581 248.371 51.3701 248.371 50.2188Z" fill="white"/>
<path d="M256.348 53.2488L256.339 49.6128L254.559 52.6081H253.928L252.156 49.6909V53.2488H250.843V47.1887H252.001L254.265 50.9544L256.495 47.1887H257.645L257.662 53.2488H256.348Z" fill="white"/>
<path d="M263.78 52.1233V53.2488H259.097V47.1887H263.668V48.3141H260.488V49.63H263.296V50.7209H260.488V52.1233H263.78Z" fill="white"/>
<path d="M273.099 56.2881H227.732V85.9762H273.099V56.2881Z" fill="#263238"/>
<g opacity="0.1">
<path d="M241.615 81.1415L242.491 79.9954L242.481 72.9621L241.369 71.6702L240.25 72.9912V79.374L241.615 81.1415Z" fill="white"/>
<path d="M241.642 60.8655L242.488 62.2268V68.9896L241.312 70.2434L240.25 68.9896V62.6068L241.642 60.8655Z" fill="white"/>
<path d="M231.39 60.8655L230.514 62.0117L230.524 69.045L231.636 70.3368L232.755 69.0159V62.6331L231.39 60.8655Z" fill="white"/>
<path d="M231.363 81.1415L230.517 79.7801V73.0174L231.693 71.7637L232.755 73.0174V79.4003L231.363 81.1415Z" fill="white"/>
<path d="M232.216 71.0347L233.203 69.8188H239.802L240.754 71.0157L239.802 72.2124H233.165L232.216 71.0347Z" fill="white"/>
<path d="M231.845 81.6236L233.276 79.78H239.757L241.146 81.6313L240.683 82.2883H232.371L231.845 81.6236Z" fill="white"/>
<path d="M241.146 60.5241L239.715 62.3677H233.234L231.845 60.5163L232.308 59.8594H240.62L241.146 60.5241Z" fill="white"/>
<path d="M255.369 81.1415L256.244 79.9954L256.234 72.9621L255.122 71.6702L254.003 72.9912V79.374L255.369 81.1415Z" fill="white"/>
<path d="M255.395 60.8655L256.241 62.2268V68.9896L255.065 70.2434L254.003 68.9896V62.6068L255.395 60.8655Z" fill="white"/>
<path d="M245.143 60.8655L244.268 62.0117L244.277 69.045L245.389 70.3368L246.508 69.0159V62.6331L245.143 60.8655Z" fill="white"/>
<path d="M245.116 81.1415L244.27 79.7801V73.0174L245.446 71.7637L246.508 73.0174V79.4003L245.116 81.1415Z" fill="white"/>
<path d="M245.969 71.0347L246.956 69.8188H253.555L254.507 71.0157L253.555 72.2124H246.918L245.969 71.0347Z" fill="white"/>
<path d="M245.598 81.6236L247.029 79.78H253.51L254.899 81.6313L254.436 82.2883H246.124L245.598 81.6236Z" fill="white"/>
<path d="M254.899 60.5241L253.468 62.3677H246.987L245.598 60.5163L246.061 59.8594H254.373L254.899 60.5241Z" fill="white"/>
<path d="M269.441 81.1415L270.317 79.9954L270.307 72.9621L269.195 71.6702L268.076 72.9912V79.374L269.441 81.1415Z" fill="white"/>
<path d="M269.468 60.8655L270.314 62.2268V68.9896L269.138 70.2434L268.076 68.9896V62.6068L269.468 60.8655Z" fill="white"/>
<path d="M259.216 60.8655L258.34 62.0117L258.35 69.045L259.462 70.3368L260.581 69.0159V62.6331L259.216 60.8655Z" fill="white"/>
<path d="M259.189 81.1415L258.343 79.7801V73.0174L259.519 71.7637L260.581 73.0174V79.4003L259.189 81.1415Z" fill="white"/>
<path d="M260.042 71.0347L261.028 69.8188H267.628L268.58 71.0157L267.628 72.2124H260.991L260.042 71.0347Z" fill="white"/>
<path d="M259.671 81.6236L261.102 79.78H267.583L268.972 81.6313L268.509 82.2883H260.197L259.671 81.6236Z" fill="white"/>
<path d="M268.972 60.5241L267.541 62.3677H261.06L259.671 60.5163L260.134 59.8594H268.446L268.972 60.5241Z" fill="white"/>
</g>
<path d="M328.408 50.1234H329.687V52.5821C329.021 53.0846 328.105 53.3528 327.241 53.3528C325.339 53.3528 323.94 52.0457 323.94 50.2188C323.94 48.3919 325.339 47.085 327.267 47.085C328.33 47.085 329.211 47.4485 329.799 48.1327L328.9 48.9637C328.459 48.4959 327.95 48.2796 327.336 48.2796C326.161 48.2796 325.357 49.0676 325.357 50.2188C325.357 51.3532 326.161 52.1581 327.319 52.1581C327.699 52.1581 328.053 52.0888 328.408 51.8984V50.1234Z" fill="white"/>
<path d="M330.931 50.5823V47.1887H332.332V50.5304C332.332 51.6817 332.833 52.158 333.68 52.158C334.536 52.158 335.028 51.6817 335.028 50.5304V47.1887H336.411V50.5823C336.411 52.3657 335.391 53.3527 333.671 53.3527C331.952 53.3527 330.931 52.3657 330.931 50.5823Z" fill="white"/>
<path d="M342.478 52.1233V53.2488H337.794V47.1887H342.366V48.3141H339.185V49.63H341.994V50.7209H339.185V52.1233H342.478Z" fill="white"/>
<path d="M343.117 52.6513L343.593 51.5956C344.102 51.9676 344.862 52.2273 345.589 52.2273C346.419 52.2273 346.755 51.9503 346.755 51.5778C346.755 50.444 343.238 51.2231 343.238 48.9722C343.238 47.9418 344.068 47.085 345.787 47.085C346.548 47.085 347.326 47.2669 347.888 47.6217L347.456 48.6867C346.894 48.3662 346.314 48.2104 345.779 48.2104C344.949 48.2104 344.63 48.522 344.63 48.903C344.63 50.0196 348.147 49.2492 348.147 51.474C348.147 52.487 347.308 53.3528 345.58 53.3528C344.621 53.3528 343.653 53.0669 343.117 52.6513Z" fill="white"/>
<path d="M350.273 48.3315H348.337V47.1887H353.609V48.3315H351.673V53.2488H350.273V48.3315Z" fill="white"/>
<path d="M285.781 56.9337C285.781 57.9105 285.05 58.5185 283.88 58.5185H282.998V59.7274H281.985V55.3423H283.88C285.05 55.3423 285.781 55.9498 285.781 56.9337ZM284.756 56.9337C284.756 56.4512 284.443 56.1691 283.824 56.1691H282.998V57.6916H283.824C284.443 57.6916 284.756 57.4096 284.756 56.9337Z" fill="white"/>
<path d="M289.892 58.9129V59.7274H286.502V55.3423H289.811V56.1568H287.509V57.1087H289.542V57.8982H287.509V58.9129H289.892Z" fill="white"/>
<path d="M293.489 59.7274L292.645 58.5058H291.713V59.7274H290.701V55.3423H292.595C293.765 55.3423 294.497 55.9498 294.497 56.9337C294.497 57.5912 294.165 58.0737 293.596 58.318L294.578 59.7274H293.489ZM292.539 56.1691H291.713V57.6978H292.539C293.158 57.6978 293.471 57.4096 293.471 56.9337C293.471 56.4512 293.158 56.1691 292.539 56.1691Z" fill="white"/>
<path d="M295.299 55.3423H296.312V59.7274H295.299V55.3423Z" fill="white"/>
<path d="M297.075 57.5351C297.075 56.2319 298.089 55.2673 299.471 55.2673C300.847 55.2673 301.866 56.2258 301.866 57.5351C301.866 58.8441 300.847 59.8025 299.471 59.8025C298.089 59.8025 297.075 58.8379 297.075 57.5351ZM300.841 57.5351C300.841 56.7017 300.253 56.1318 299.471 56.1318C298.69 56.1318 298.102 56.7017 298.102 57.5351C298.102 58.3681 298.69 58.9383 299.471 58.9383C300.253 58.9383 300.841 58.3681 300.841 57.5351Z" fill="white"/>
<path d="M302.632 55.3423H304.62C306.053 55.3423 307.035 56.2068 307.035 57.5351C307.035 58.8628 306.053 59.7274 304.62 59.7274H302.632V55.3423ZM304.57 58.8944C305.44 58.8944 306.009 58.3742 306.009 57.5351C306.009 56.6955 305.44 56.1757 304.57 56.1757H303.645V58.8944H304.57Z" fill="white"/>
<path d="M360.854 56.2881H315.487V85.9762H360.854V56.2881Z" fill="#263238"/>
<g opacity="0.1">
<path d="M329.37 81.1415L330.246 79.9954L330.236 72.9621L329.124 71.6702L328.005 72.9912V79.374L329.37 81.1415Z" fill="white"/>
<path d="M329.397 60.8655L330.243 62.2268V68.9896L329.067 70.2434L328.005 68.9896V62.6068L329.397 60.8655Z" fill="white"/>
<path d="M319.145 60.8655L318.269 62.0117L318.279 69.045L319.391 70.3368L320.51 69.0159V62.6331L319.145 60.8655Z" fill="white"/>
<path d="M319.118 81.1415L318.272 79.7801V73.0174L319.448 71.7637L320.51 73.0174V79.4003L319.118 81.1415Z" fill="white"/>
<path d="M319.971 71.0347L320.957 69.8188H327.557L328.508 71.0157L327.557 72.2124H320.919L319.971 71.0347Z" fill="white"/>
<path d="M319.599 81.6236L321.031 79.78H327.512L328.901 81.6313L328.438 82.2883H320.126L319.599 81.6236Z" fill="white"/>
<path d="M328.901 60.5241L327.47 62.3677H320.989L319.599 60.5163L320.063 59.8594H328.374L328.901 60.5241Z" fill="white"/>
<path d="M343.123 81.1415L343.999 79.9954L343.989 72.9621L342.877 71.6702L341.758 72.9912V79.374L343.123 81.1415Z" fill="white"/>
<path d="M343.15 60.8655L343.996 62.2268V68.9896L342.82 70.2434L341.758 68.9896V62.6068L343.15 60.8655Z" fill="white"/>
<path d="M332.898 60.8655L332.022 62.0117L332.032 69.045L333.144 70.3368L334.263 69.0159V62.6331L332.898 60.8655Z" fill="white"/>
<path d="M332.871 81.1415L332.025 79.7801V73.0174L333.201 71.7637L334.263 73.0174V79.4003L332.871 81.1415Z" fill="white"/>
<path d="M333.724 71.0347L334.71 69.8188H341.31L342.261 71.0157L341.31 72.2124H334.672L333.724 71.0347Z" fill="white"/>
<path d="M333.353 81.6236L334.784 79.78H341.265L342.654 81.6313L342.191 82.2883H333.879L333.353 81.6236Z" fill="white"/>
<path d="M342.654 60.5241L341.223 62.3677H334.742L333.353 60.5163L333.816 59.8594H342.128L342.654 60.5241Z" fill="white"/>
<path d="M357.196 81.1415L358.072 79.9954L358.062 72.9621L356.95 71.6702L355.831 72.9912V79.374L357.196 81.1415Z" fill="white"/>
<path d="M357.223 60.8655L358.069 62.2268V68.9896L356.893 70.2434L355.831 68.9896V62.6068L357.223 60.8655Z" fill="white"/>
<path d="M346.971 60.8655L346.095 62.0117L346.105 69.045L347.217 70.3368L348.336 69.0159V62.6331L346.971 60.8655Z" fill="white"/>
<path d="M346.944 81.1415L346.098 79.7801V73.0174L347.274 71.7637L348.336 73.0174V79.4003L346.944 81.1415Z" fill="white"/>
<path d="M347.797 71.0347L348.783 69.8188H355.383L356.334 71.0157L355.383 72.2124H348.745L347.797 71.0347Z" fill="white"/>
<path d="M347.425 81.6236L348.857 79.78H355.338L356.727 81.6313L356.264 82.2883H347.952L347.425 81.6236Z" fill="white"/>
<path d="M356.727 60.5241L355.296 62.3677H348.815L347.425 60.5163L347.889 59.8594H356.2L356.727 60.5241Z" fill="white"/>
</g>
<path d="M325.088 95.6458H259.208V125.334H325.088V95.6458Z" fill="#263238"/>
<g opacity="0.1">
<path d="M274.272 120.558L275.147 119.411L275.138 112.378L274.025 111.086L272.907 112.407V118.79L274.272 120.558Z" fill="white"/>
<path d="M274.298 100.281L275.144 101.643V108.406L273.969 109.659L272.907 108.406V102.023L274.298 100.281Z" fill="white"/>
<path d="M264.046 100.281L263.171 101.428L263.18 108.461L264.293 109.753L265.411 108.432V102.049L264.046 100.281Z" fill="white"/>
<path d="M264.02 120.558L263.174 119.196V112.433L264.349 111.18L265.411 112.433V118.816L264.02 120.558Z" fill="white"/>
<path d="M264.873 110.451L265.859 109.235H272.458L273.41 110.432L272.458 111.628H265.821L264.873 110.451Z" fill="white"/>
<path d="M264.501 121.039L265.932 119.196H272.413L273.803 121.047L273.339 121.704H265.028L264.501 121.039Z" fill="white"/>
<path d="M273.803 99.9402L272.371 101.784H265.89L264.501 99.9324L264.964 99.2754H273.276L273.803 99.9402Z" fill="white"/>
<path d="M288.025 120.558L288.9 119.411L288.891 112.378L287.779 111.086L286.66 112.407V118.79L288.025 120.558Z" fill="white"/>
<path d="M288.052 100.281L288.898 101.643V108.406L287.722 109.659L286.66 108.406V102.023L288.052 100.281Z" fill="white"/>
<path d="M277.8 100.281L276.924 101.428L276.934 108.461L278.046 109.753L279.165 108.432V102.049L277.8 100.281Z" fill="white"/>
<path d="M277.773 120.558L276.927 119.196V112.433L278.103 111.18L279.165 112.433V118.816L277.773 120.558Z" fill="white"/>
<path d="M278.626 110.451L279.612 109.235H286.212L287.163 110.432L286.212 111.628H279.574L278.626 110.451Z" fill="white"/>
<path d="M278.254 121.039L279.686 119.196H286.167L287.556 121.047L287.092 121.704H278.781L278.254 121.039Z" fill="white"/>
<path d="M287.556 99.9402L286.124 101.784H279.643L278.254 99.9324L278.718 99.2754H287.029L287.556 99.9402Z" fill="white"/>
</g>
<g opacity="0.1">
<path d="M307.572 120.558L308.447 119.411L308.438 112.378L307.325 111.086L306.207 112.407V118.79L307.572 120.558Z" fill="white"/>
<path d="M307.598 100.281L308.444 101.643V108.406L307.269 109.659L306.207 108.406V102.023L307.598 100.281Z" fill="white"/>
<path d="M297.346 100.281L296.471 101.428L296.48 108.461L297.593 109.753L298.711 108.432V102.049L297.346 100.281Z" fill="white"/>
<path d="M297.32 120.558L296.474 119.196V112.433L297.649 111.18L298.711 112.433V118.816L297.32 120.558Z" fill="white"/>
<path d="M298.173 110.451L299.159 109.235H305.758L306.71 110.432L305.758 111.628H299.121L298.173 110.451Z" fill="white"/>
<path d="M297.801 121.039L299.232 119.196H305.713L307.103 121.047L306.639 121.704H298.328L297.801 121.039Z" fill="white"/>
<path d="M307.103 99.9402L305.671 101.784H299.19L297.801 99.9324L298.264 99.2754H306.576L307.103 99.9402Z" fill="white"/>
<path d="M321.325 120.558L322.2 119.411L322.191 112.378L321.079 111.086L319.96 112.407V118.79L321.325 120.558Z" fill="white"/>
<path d="M321.352 100.281L322.198 101.643V108.406L321.022 109.659L319.96 108.406V102.023L321.352 100.281Z" fill="white"/>
<path d="M311.099 100.281L310.224 101.428L310.234 108.461L311.346 109.753L312.465 108.432V102.049L311.099 100.281Z" fill="white"/>
<path d="M311.073 120.558L310.227 119.196V112.433L311.403 111.18L312.465 112.433V118.816L311.073 120.558Z" fill="white"/>
<path d="M311.926 110.451L312.912 109.235H319.512L320.463 110.432L319.512 111.628H312.874L311.926 110.451Z" fill="white"/>
<path d="M311.554 121.039L312.986 119.196H319.467L320.856 121.047L320.392 121.704H312.081L311.554 121.039Z" fill="white"/>
<path d="M320.856 99.9402L319.424 101.784H312.943L311.554 99.9324L312.018 99.2754H320.329L320.856 99.9402Z" fill="white"/>
</g>
<path d="M293.591 107.774C293.591 108.343 293.131 108.804 292.563 108.804C291.995 108.804 291.535 108.343 291.535 107.774C291.535 107.205 291.995 106.744 292.563 106.744C293.131 106.744 293.591 107.205 293.591 107.774Z" fill="#335FFE"/>
<path d="M293.591 113.109C293.591 113.678 293.131 114.139 292.563 114.139C291.995 114.139 291.535 113.678 291.535 113.109C291.535 112.54 291.995 112.079 292.563 112.079C293.131 112.079 293.591 112.54 293.591 113.109Z" fill="#335FFE"/>
<path d="M355.831 95.6458H337.993V99.2754H355.831V95.6458Z" fill="#263238"/>
<path d="M355.122 103.929H338.17V124.17H355.122V103.929Z" fill="#263238"/>
<path d="M249.858 95.6458H232.02V99.2754H249.858V95.6458Z" fill="#263238"/>
<path d="M249.149 103.929H232.197V124.17H249.149V103.929Z" fill="#263238"/>
<path d="M302.668 62.3677H286.078V84.9878H302.668V62.3677Z" fill="#263238"/>
<g opacity="0.1">
<path d="M298.502 80.6463L299.118 79.8391L299.111 74.8863L298.328 73.9766L297.54 74.9068V79.4015L298.502 80.6463Z" fill="white"/>
<path d="M298.52 66.3679L299.116 67.3265V72.0888L298.288 72.9718L297.54 72.0888V67.5941L298.52 66.3679Z" fill="white"/>
<path d="M291.301 66.3679L290.685 67.1751L290.691 72.1278L291.474 73.0376L292.262 72.1073V67.6126L291.301 66.3679Z" fill="white"/>
<path d="M291.282 80.6461L290.686 79.6874V74.9251L291.515 74.0422L292.262 74.9251V79.4199L291.282 80.6461Z" fill="white"/>
<path d="M291.883 73.529L292.577 72.6729H297.225L297.895 73.5156L297.225 74.3584H292.551L291.883 73.529Z" fill="white"/>
<path d="M291.621 80.9857L292.629 79.6875H297.193L298.171 80.9911L297.845 81.4538H291.992L291.621 80.9857Z" fill="white"/>
<path d="M298.171 66.1276L297.163 67.4257H292.6L291.621 66.1221L291.948 65.6594H297.801L298.171 66.1276Z" fill="white"/>
</g>
<path d="M255.369 81.1998L256.244 80.0537L256.234 73.0204L255.122 71.7285L254.003 73.0494V79.4322L255.369 81.1998Z" fill="#335FFE"/>
<path d="M255.395 60.9238L256.241 62.2852V69.0479L255.065 70.3017L254.003 69.0479V62.6651L255.395 60.9238Z" fill="#335FFE"/>
<path d="M245.143 60.9238L244.268 62.07L244.277 69.1033L245.389 70.3951L246.508 69.0742V62.6914L245.143 60.9238Z" fill="#335FFE"/>
<path d="M245.97 71.0929L246.956 69.8772H253.555L254.507 71.0739L253.555 72.2707H246.918L245.97 71.0929Z" fill="#335FFE"/>
<path d="M269.441 81.1998L270.317 80.0537L270.307 73.0204L269.195 71.7285L268.076 73.0494V79.4322L269.441 81.1998Z" fill="#335FFE"/>
<path d="M269.468 60.9238L270.314 62.2852V69.0479L269.138 70.3017L268.076 69.0479V62.6651L269.468 60.9238Z" fill="#335FFE"/>
<path d="M259.216 60.9238L258.34 62.07L258.35 69.1033L259.462 70.3951L260.581 69.0742V62.6914L259.216 60.9238Z" fill="#335FFE"/>
<path d="M260.042 71.0929L261.028 69.8772H267.628L268.58 71.0739L267.628 72.2707H260.991L260.042 71.0929Z" fill="#335FFE"/>
<path d="M343.15 60.8655L343.996 62.2268V68.9896L342.82 70.2434L341.758 68.9896V62.6068L343.15 60.8655Z" fill="#335FFE"/>
<path d="M332.871 81.1415L332.025 79.7801V73.0174L333.201 71.7637L334.263 73.0174V79.4003L332.871 81.1415Z" fill="#335FFE"/>
<path d="M333.724 71.0347L334.71 69.8188H341.31L342.261 71.0157L341.31 72.2124H334.672L333.724 71.0347Z" fill="#335FFE"/>
<path d="M333.353 81.6236L334.784 79.78H341.265L342.654 81.6313L342.191 82.2883H333.879L333.353 81.6236Z" fill="#335FFE"/>
<path d="M342.654 60.5241L341.223 62.3677H334.742L333.353 60.5163L333.816 59.8594H342.128L342.654 60.5241Z" fill="#335FFE"/>
<path d="M357.196 81.1415L358.072 79.9954L358.062 72.9621L356.95 71.6702L355.831 72.9912V79.374L357.196 81.1415Z" fill="#335FFE"/>
<path d="M357.223 60.8655L358.069 62.2268V68.9896L356.893 70.2434L355.831 68.9896V62.6068L357.223 60.8655Z" fill="#335FFE"/>
<path d="M347.797 71.0347L348.783 69.8188H355.383L356.334 71.0157L355.383 72.2124H348.745L347.797 71.0347Z" fill="#335FFE"/>
<path d="M347.425 81.6236L348.857 79.78H355.338L356.727 81.6313L356.264 82.2883H347.952L347.425 81.6236Z" fill="#335FFE"/>
<path d="M356.727 60.5241L355.296 62.3677H348.815L347.425 60.5163L347.889 59.8594H356.2L356.727 60.5241Z" fill="#335FFE"/>
<path d="M298.502 80.6463L299.118 79.8391L299.111 74.8863L298.328 73.9766L297.54 74.9068V79.4015L298.502 80.6463Z" fill="#335FFE"/>
<path d="M298.52 66.3682L299.116 67.3268V72.089L298.288 72.972L297.54 72.089V67.5944L298.52 66.3682Z" fill="#335FFE"/>
<path d="M274.309 120.558L275.185 119.411L275.175 112.378L274.063 111.086L272.944 112.407V118.79L274.309 120.558Z" fill="#335FFE"/>
<path d="M274.336 100.281L275.182 101.643V108.406L274.006 109.659L272.944 108.406V102.023L274.336 100.281Z" fill="#335FFE"/>
<path d="M288.063 120.558L288.938 119.411L288.928 112.378L287.816 111.086L286.697 112.407V118.79L288.063 120.558Z" fill="#335FFE"/>
<path d="M288.089 100.281L288.935 101.643V108.406L287.759 109.659L286.697 108.406V102.023L288.089 100.281Z" fill="#335FFE"/>
<path d="M307.609 120.558L308.485 119.411L308.475 112.378L307.363 111.086L306.244 112.407V118.79L307.609 120.558Z" fill="#335FFE"/>
<path d="M307.636 100.281L308.482 101.643V108.406L307.306 109.659L306.244 108.406V102.023L307.636 100.281Z" fill="#335FFE"/>
<path d="M321.363 120.558L322.238 119.411L322.228 112.378L321.116 111.086L319.997 112.407V118.79L321.363 120.558Z" fill="#335FFE"/>
<path d="M311.137 100.281L310.261 101.428L310.271 108.461L311.383 109.753L312.502 108.432V102.049L311.137 100.281Z" fill="#335FFE"/>
<path d="M311.963 110.451L312.95 109.235H319.549L320.501 110.432L319.549 111.628H312.912L311.963 110.451Z" fill="#335FFE"/>
<path d="M311.592 121.039L313.023 119.196H319.504L320.893 121.047L320.43 121.704H312.118L311.592 121.039Z" fill="#335FFE"/>
<path d="M320.893 99.9402L319.462 101.784H312.981L311.592 99.9324L312.055 99.2754H320.367L320.893 99.9402Z" fill="#335FFE"/>
<path d="M368.918 133.915H221.175L220.179 131.208H369.821L368.918 133.915Z" fill="#263238"/>
<path d="M19.6218 338.116L109.679 247.03L481.964 246.268L570.008 338.116H19.6218Z" fill="#FFBF9D"/>
<path d="M294.599 297.373C314.565 297.373 330.75 292.184 330.75 285.783C330.75 279.382 314.565 274.193 294.599 274.193C274.634 274.193 258.449 279.382 258.449 285.783C258.449 292.184 274.634 297.373 294.599 297.373Z" fill="#335FFE"/>
<path d="M182.217 295.463H89.775L108.377 276.649L192.612 276.103L182.217 295.463Z" fill="#335FFE"/>
<path d="M501.283 295.878H407.731L395.577 273.875L479.613 273.219L501.283 295.878Z" fill="#335FFE"/>
<g opacity="0.3">
<path d="M562.56 329.69C562.56 329.804 443.063 329.912 295.691 329.932C148.268 329.952 28.797 329.876 28.797 329.763C28.797 329.65 148.268 329.542 295.691 329.522C443.063 329.501 562.56 329.577 562.56 329.69Z" fill="black"/>
</g>
<g opacity="0.3">
<path d="M549.935 316.521C549.935 316.634 436.143 316.726 295.804 316.726C155.417 316.726 41.6488 316.634 41.6488 316.521C41.6488 316.407 155.417 316.315 295.804 316.315C436.143 316.315 549.935 316.407 549.935 316.521Z" fill="black"/>
</g>
<g opacity="0.3">
<path d="M536.02 302.816C536.02 302.929 427.834 303.021 294.412 303.021C160.943 303.021 52.7803 302.929 52.7803 302.816C52.7803 302.703 160.943 302.611 294.412 302.611C427.834 302.611 536.02 302.703 536.02 302.816Z" fill="black"/>
</g>
<g opacity="0.3">
<path d="M515.131 291.412C515.131 291.526 414.624 291.617 290.671 291.617C166.674 291.617 66.1887 291.526 66.1887 291.412C66.1887 291.299 166.674 291.207 290.671 291.207C414.624 291.207 515.131 291.299 515.131 291.412Z" fill="black"/>
</g>
<g opacity="0.3">
<path d="M505.674 280.68C505.674 280.793 409.803 280.885 291.568 280.885C173.292 280.885 77.4415 280.793 77.4415 280.68C77.4415 280.566 173.292 280.474 291.568 280.474C409.803 280.474 505.674 280.566 505.674 280.68Z" fill="black"/>
</g>
<g opacity="0.3">
<path d="M503.867 269.947C503.867 270.06 411.046 270.152 296.572 270.152C182.058 270.152 89.257 270.06 89.257 269.947C89.257 269.834 182.058 269.742 296.572 269.742C411.046 269.742 503.867 269.834 503.867 269.947Z" fill="black"/>
</g>
<g opacity="0.3">
<path d="M497.341 261.653C497.341 261.766 407.456 261.858 296.603 261.858C185.711 261.858 95.8455 261.766 95.8455 261.653C95.8455 261.54 185.711 261.448 296.603 261.448C407.456 261.448 497.341 261.54 497.341 261.653Z" fill="black"/>
</g>
<g opacity="0.3">
<path d="M488.561 254.417C488.561 254.531 402.309 254.623 295.936 254.623C189.525 254.623 103.291 254.531 103.291 254.417C103.291 254.304 189.525 254.212 295.936 254.212C402.309 254.212 488.561 254.304 488.561 254.417Z" fill="black"/>
</g>
<g opacity="0.1">
<path d="M64.1614 316.521L75.4329 302.816H162.954L156.567 316.521H64.1614Z" fill="black"/>
</g>
<g opacity="0.1">
<path d="M163.964 302.816L169.482 291.412H202.901H237.125L232.801 302.816H163.964Z" fill="black"/>
</g>
<g opacity="0.2">
<path d="M208.337 280.536L289.635 280.679L286.176 291.412H202.901L208.337 280.536Z" fill="white"/>
</g>
<g opacity="0.1">
<path d="M297.393 269.947L298.051 261.653H394.757L396.984 269.947H297.393Z" fill="black"/>
</g>
<g opacity="0.1">
<path d="M388.804 291.412L387.27 280.679H505.674L515.132 291.412H388.804Z" fill="black"/>
</g>
<g opacity="0.2">
<path d="M434.866 316.521L430.92 302.816H516.97L524.288 316.521H434.866Z" fill="white"/>
</g>
<g opacity="0.1">
<path d="M109.289 261.653H183.883L187.384 254.417H115.24L109.289 261.653Z" fill="black"/>
</g>
<g opacity="0.1">
<path d="M212.007 269.947L217.485 261.653H277.555L275.011 269.947H212.007Z" fill="black"/>
</g>
<g opacity="0.1">
<path d="M342.222 330.225L340.2 316.521H295.345L294.426 330.225H342.222Z" fill="black"/>
</g>
<g opacity="0.1">
<path d="M375.455 302.816L373.453 291.412H447.526C447.526 291.412 453.699 302.816 453.198 302.816H375.455Z" fill="black"/>
</g>
<g opacity="0.2">
<path d="M162.927 338.116L170.152 326.28L248.445 326.752L244.305 338.116H162.927Z" fill="white"/>
</g>
<g opacity="0.2">
<path d="M353.801 253.627V246.647H402.595L405.799 253.627H353.801Z" fill="white"/>
</g>
<path d="M535.541 330.479H54.0489L129.008 254.661L462.147 253.914L462.381 254.157L535.541 330.479ZM57.8213 328.903H531.849L461.479 255.492L129.666 256.236L57.8213 328.903Z" fill="white"/>
<path d="M99.742 321.002H65.3038V319.426H99.742C164.14 319.426 225.026 301.92 225.026 283.404C225.026 264.674 188.21 261.01 124.618 261.01V259.434C161.248 259.434 183.474 260.694 198.938 263.649C217.81 267.255 226.599 273.532 226.599 283.404C226.599 293.175 212.39 302.606 186.59 309.957C161.955 316.976 130.3 321.002 99.742 321.002Z" fill="white"/>
<path d="M524.611 321.003H486.903C423.606 321.003 363.762 302.228 363.762 282.371C363.762 262.711 401.453 258.865 466.558 258.865V260.441C413.216 260.441 365.335 262.118 365.335 282.371C365.335 301.072 425.551 319.427 486.903 319.427H524.611V321.003Z" fill="white"/>
<path d="M503.126 296.665H407.267L394.247 273.097L479.947 272.429L503.126 296.665ZM408.195 295.089H499.44L479.28 274.01L396.905 274.653L408.195 295.089Z" fill="white"/>
<path d="M182.687 296.251H87.8886L108.046 275.864L108.372 275.861L193.933 275.306L182.687 296.251ZM91.6614 294.675H181.747L191.291 276.899L108.707 277.435L91.6614 294.675Z" fill="white"/>
<path d="M182.217 296.251V294.675C203.058 294.675 218.631 289.907 218.631 285.643C218.631 281.213 205.557 277.852 193.257 276.938L193.373 275.366C206.728 276.358 220.204 279.92 220.204 285.643C220.204 292.195 200.486 296.251 182.217 296.251Z" fill="white"/>
<path d="M407.731 296.665C388.188 296.665 371.046 290.383 371.046 283.221C371.046 278.477 379.038 275.165 395.478 273.093L395.675 274.657C375.615 277.185 372.619 281.108 372.619 283.221C372.619 288.709 387.957 295.089 407.731 295.089V296.665Z" fill="white"/>
<path d="M295.64 254.448H294.067V329.944H295.64V254.448Z" fill="white"/>
<path d="M294.853 298.161C273.66 298.161 257.059 292.724 257.059 285.783C257.059 278.842 273.66 273.406 294.853 273.406C316.046 273.406 332.648 278.842 332.648 285.783C332.648 292.724 316.046 298.161 294.853 298.161ZM294.853 274.982C273.187 274.982 258.633 280.567 258.633 285.783C258.633 290.999 273.187 296.585 294.853 296.585C316.52 296.585 331.074 290.999 331.074 285.783C331.074 280.567 316.52 274.982 294.853 274.982Z" fill="white"/>
<path d="M514.222 263.158H510.289V157.229C510.289 152.041 506.075 147.82 500.897 147.82H473.503V143.88H500.897C508.245 143.88 514.222 149.868 514.222 157.229V263.158Z" fill="#E0E0E0"/>
<path d="M514.222 263.158C514.222 263.158 514.212 262.879 514.207 262.348C514.204 261.809 514.199 261.024 514.193 259.998C514.186 257.929 514.175 254.895 514.162 250.991C514.145 243.175 514.122 231.882 514.092 217.924C514.076 203.976 514.056 187.369 514.035 168.922C514.033 166.616 514.032 164.282 514.03 161.921C514.03 160.74 514.029 159.553 514.029 158.359C514.033 157.159 514.019 155.978 513.794 154.804C513.553 153.642 513.215 152.481 512.655 151.414C512.417 150.86 512.061 150.367 511.755 149.848C511.387 149.369 511.051 148.861 510.623 148.429C509.823 147.515 508.868 146.734 507.831 146.085C506.806 145.412 505.654 144.941 504.473 144.59C502.096 143.867 499.535 144.132 496.985 144.083C494.433 144.083 491.86 144.084 489.269 144.084C484.086 144.085 478.826 144.085 473.503 144.085L473.708 143.88V144.72C473.708 145.777 473.708 146.833 473.708 147.82L473.503 147.615C482.579 147.616 491.462 147.618 500.088 147.619C502.254 147.505 504.505 148.055 506.292 149.291C508.084 150.521 509.414 152.354 510.058 154.391C510.375 155.412 510.483 156.488 510.485 157.532C510.484 158.569 510.484 159.601 510.484 160.628C510.483 162.683 510.482 164.719 510.481 166.734C510.468 182.857 510.457 197.693 510.447 210.728C510.391 236.77 510.35 255.602 510.334 263.158L510.289 263.114C511.603 263.125 512.579 263.134 513.238 263.14C513.891 263.147 514.222 263.158 514.222 263.158C514.222 263.158 513.913 263.169 513.263 263.177C512.599 263.183 511.614 263.192 510.289 263.203L510.244 263.204L510.244 263.158C510.228 255.602 510.187 236.77 510.131 210.728C510.121 197.693 510.11 182.857 510.097 166.734C510.096 164.719 510.095 162.683 510.094 160.628C510.094 159.601 510.094 158.569 510.093 157.532C510.089 156.505 509.986 155.491 509.682 154.508C509.063 152.556 507.786 150.799 506.067 149.621C504.337 148.438 502.232 147.912 500.088 148.022C491.462 148.023 482.579 148.024 473.503 148.025L473.298 148.025V147.82C473.298 146.833 473.298 145.777 473.298 144.72V143.675H473.503C478.826 143.675 484.086 143.676 489.269 143.676C491.86 143.677 494.433 143.677 496.985 143.678C498.26 143.678 499.531 143.678 500.796 143.678C502.074 143.718 503.363 143.822 504.583 144.204C505.8 144.566 506.986 145.053 508.043 145.747C509.111 146.416 510.093 147.221 510.917 148.162C511.357 148.609 511.703 149.131 512.081 149.625C512.397 150.16 512.762 150.668 513.007 151.239C513.583 152.338 513.931 153.535 514.178 154.732C514.41 155.937 514.422 157.173 514.416 158.362C514.416 159.559 514.415 160.749 514.414 161.933C514.413 164.3 514.412 166.641 514.41 168.952C514.388 187.435 514.369 204.076 514.352 218.051C514.323 231.999 514.299 243.284 514.283 251.093C514.27 254.978 514.259 257.997 514.252 260.055C514.246 261.069 514.241 261.844 514.237 262.377C514.232 262.899 514.222 263.158 514.222 263.158Z" fill="#263238"/>
<g opacity="0.3">
<path d="M481.468 143.835H473.504V147.858H481.468V143.835Z" fill="black"/>
</g>
<path d="M445.028 156.687L467.871 189.912V96.5045L445.028 85.5337V156.687Z" fill="#E0E0E0"/>
<path d="M473.504 96.5044H467.871V189.912H473.504V96.5044Z" fill="#455A64"/>
<path d="M444.943 85.4916L450.822 85.1445L473.504 96.5044L467.786 96.8515L444.943 85.4916Z" fill="#263238"/>
<path d="M459.803 177.605H459.017V130.301L451.818 125.169V165.991H451.032V123.64L459.803 129.895V177.605Z" fill="#335FFE"/>
<path d="M434.131 178.855C434.018 178.855 433.927 171.434 433.927 162.282C433.927 153.127 434.018 145.708 434.131 145.708C434.244 145.708 434.336 153.127 434.336 162.282C434.336 171.434 434.244 178.855 434.131 178.855Z" fill="#263238"/>
<path d="M428.282 177.718C428.259 177.718 428.237 177.416 428.216 176.858C428.201 176.233 428.182 175.433 428.159 174.461C428.141 172.34 428.115 169.479 428.086 166.174L428.102 166.25C427.495 164.827 426.838 163.285 426.155 161.684C424.375 157.487 422.786 153.679 421.654 150.915C421.116 149.579 420.671 148.474 420.333 147.633C420.029 146.854 419.874 146.419 419.9 146.408C419.926 146.397 420.131 146.811 420.479 147.571C420.848 148.398 421.334 149.487 421.92 150.802C423.12 153.537 424.753 157.327 426.532 161.524C427.209 163.127 427.86 164.671 428.461 166.097C428.472 166.121 428.477 166.149 428.477 166.174C428.448 169.479 428.422 172.34 428.404 174.461C428.381 175.433 428.362 176.233 428.347 176.858C428.326 177.416 428.304 177.718 428.282 177.718Z" fill="#263238"/>
<path d="M423.411 176.669C423.392 176.669 423.373 176.477 423.355 176.118C423.341 175.695 423.325 175.18 423.305 174.564C423.286 173.144 423.261 171.26 423.231 169.039L423.245 169.109C422.439 167.226 421.509 165.056 420.521 162.748C418.952 159.048 417.553 155.691 416.559 153.252C416.093 152.085 415.704 151.112 415.402 150.356C415.137 149.669 415.003 149.284 415.029 149.273C415.055 149.262 415.239 149.626 415.549 150.294C415.882 151.036 416.311 151.992 416.826 153.139C417.888 155.548 419.329 158.888 420.898 162.587C421.87 164.902 422.784 167.08 423.577 168.968C423.586 168.99 423.591 169.016 423.591 169.039C423.561 171.26 423.536 173.144 423.517 174.564C423.497 175.18 423.481 175.695 423.467 176.118C423.449 176.477 423.43 176.669 423.411 176.669Z" fill="#263238"/>
<path d="M438.163 177.937C438.14 177.937 438.118 177.635 438.098 177.076C438.083 176.452 438.064 175.652 438.041 174.68C438.022 172.559 437.997 169.698 437.968 166.392C437.968 166.366 437.974 166.338 437.983 166.316C438.585 164.89 439.236 163.346 439.912 161.743C441.692 157.546 443.324 153.756 444.524 151.02C445.111 149.705 445.596 148.617 445.965 147.789C446.314 147.03 446.519 146.615 446.545 146.626C446.571 146.638 446.416 147.073 446.112 147.852C445.774 148.692 445.329 149.798 444.791 151.134C443.659 153.898 442.069 157.706 440.289 161.903C439.607 163.504 438.95 165.045 438.343 166.469L438.358 166.392C438.329 169.698 438.304 172.559 438.285 174.68C438.262 175.652 438.243 176.452 438.228 177.076C438.208 177.635 438.186 177.937 438.163 177.937Z" fill="#263238"/>
<path d="M443.034 176.887C443.014 176.887 442.996 176.696 442.978 176.337C442.964 175.913 442.948 175.399 442.928 174.783C442.909 173.363 442.883 171.479 442.854 169.257C442.853 169.234 442.86 169.207 442.868 169.187C443.661 167.299 444.575 165.121 445.547 162.806C447.116 159.107 448.557 155.767 449.619 153.358C450.134 152.211 450.563 151.255 450.896 150.513C451.206 149.845 451.39 149.48 451.416 149.491C451.442 149.502 451.308 149.888 451.043 150.575C450.741 151.331 450.352 152.303 449.885 153.471C448.892 155.909 447.493 159.267 445.924 162.967C444.935 165.274 444.006 167.445 443.199 169.328L443.214 169.257C443.184 171.479 443.159 173.363 443.14 174.783C443.12 175.399 443.103 175.914 443.09 176.337C443.072 176.696 443.053 176.887 443.034 176.887Z" fill="#263238"/>
<path d="M443.214 168.677C443.179 168.683 443.207 168.518 443.035 168.305C442.868 168.095 442.533 167.857 442.054 167.648C441.094 167.227 439.588 166.897 437.713 166.7C435.835 166.513 433.579 166.464 431.085 166.61C429.839 166.686 428.532 166.81 427.198 167.038C426.532 167.156 425.857 167.297 425.197 167.501C424.869 167.604 424.542 167.724 424.242 167.879C423.953 168.025 423.642 168.252 423.621 168.461C423.578 168.657 423.87 168.902 424.152 169.056C424.446 169.218 424.77 169.342 425.097 169.449C425.753 169.661 426.428 169.806 427.093 169.926C428.426 170.161 429.733 170.287 430.979 170.366C433.473 170.516 435.731 170.468 437.616 170.351C439.498 170.214 441.022 169.986 442.008 169.629C442.501 169.456 442.853 169.245 443.029 169.043C443.208 168.837 443.179 168.67 443.214 168.677C443.206 168.666 443.268 168.846 443.095 169.093C442.925 169.332 442.563 169.577 442.065 169.779C441.067 170.192 439.533 170.464 437.639 170.64C435.741 170.795 433.474 170.874 430.957 170.743C429.7 170.674 428.38 170.556 427.023 170.322C426.346 170.202 425.658 170.057 424.971 169.837C424.629 169.725 424.286 169.596 423.952 169.414C423.787 169.318 423.622 169.213 423.472 169.063C423.326 168.922 423.179 168.684 423.214 168.413C423.249 168.147 423.414 167.966 423.564 167.835C423.72 167.704 423.885 167.599 424.054 167.515C424.389 167.342 424.733 167.219 425.076 167.112C425.764 166.9 426.452 166.759 427.13 166.642C428.487 166.416 429.807 166.298 431.064 166.233C433.579 166.106 435.852 166.185 437.746 166.412C439.636 166.648 441.153 167.025 442.122 167.504C442.604 167.741 442.945 168.013 443.102 168.258C443.267 168.508 443.207 168.687 443.214 168.677Z" fill="#263238"/>
<path d="M447.543 158.624C447.526 158.63 447.528 158.394 447.197 158.175C446.879 157.959 446.339 157.748 445.623 157.559C444.189 157.181 442.052 156.866 439.4 156.662C436.748 156.461 433.576 156.364 430.062 156.498C428.305 156.569 426.463 156.696 424.57 156.945C423.624 157.072 422.664 157.226 421.713 157.456C421.238 157.572 420.763 157.706 420.311 157.884C420.088 157.977 419.867 158.077 419.674 158.203C419.479 158.325 419.333 158.498 419.33 158.623C419.332 158.747 419.477 158.921 419.672 159.043C419.864 159.169 420.086 159.27 420.309 159.363C420.761 159.541 421.236 159.675 421.711 159.791C422.663 160.021 423.623 160.176 424.569 160.303C426.462 160.551 428.305 160.678 430.062 160.749C433.576 160.883 436.749 160.787 439.401 160.585C442.052 160.381 444.189 160.067 445.623 159.688C446.339 159.499 446.879 159.289 447.197 159.072C447.528 158.853 447.526 158.618 447.543 158.624C447.556 158.609 447.584 158.883 447.246 159.139C446.928 159.388 446.384 159.627 445.667 159.842C444.228 160.273 442.085 160.632 439.425 160.874C436.764 161.114 433.581 161.241 430.048 161.127C428.282 161.066 426.428 160.947 424.516 160.701C423.561 160.576 422.59 160.422 421.615 160.188C421.128 160.07 420.639 159.933 420.157 159.743C419.916 159.643 419.676 159.535 419.445 159.384C419.23 159.235 418.949 159.023 418.921 158.622C418.952 158.22 419.232 158.011 419.447 157.861C419.678 157.711 419.919 157.603 420.159 157.503C420.641 157.314 421.13 157.177 421.617 157.059C422.592 156.825 423.562 156.672 424.517 156.546C426.429 156.301 428.282 156.181 430.048 156.121C433.58 156.006 436.764 156.134 439.424 156.373C442.085 156.615 444.227 156.975 445.666 157.405C446.384 157.62 446.927 157.859 447.246 158.109C447.584 158.364 447.556 158.638 447.543 158.624Z" fill="#263238"/>
<path d="M454.574 148.32H451.323V149.896H454.574V148.32Z" fill="#335FFE"/>
<path d="M433.037 154.433C423.558 154.433 413.963 152.604 413.963 149.108C413.963 145.612 423.558 143.783 433.037 143.783C442.514 143.783 452.11 145.612 452.11 149.108C452.11 152.604 442.514 154.433 433.037 154.433ZM433.037 145.359C421.547 145.359 415.536 147.8 415.536 149.108C415.536 150.417 421.547 152.857 433.037 152.857C444.526 152.857 450.536 150.417 450.536 149.108C450.536 147.8 444.526 145.359 433.037 145.359Z" fill="#335FFE"/>
<g opacity="0.3">
<path d="M446.545 140.398L446.775 88.9153L466.193 98.9256L446.545 140.398Z" fill="white"/>
</g>
<g opacity="0.3">
<path d="M446.023 147.858L466.193 107.019V115.744L446.545 156.257L446.023 147.858Z" fill="white"/>
</g>
<path d="M517.315 293.75L498.035 273.219L507.865 235.38L510.357 237.273H518.143L536.02 293.75H517.315Z" fill="#335FFE"/>
<g opacity="0.3">
<path d="M536.02 293.75H517.315L510.357 237.273H518.143L536.02 293.75Z" fill="black"/>
</g>
<path d="M507.865 235.38H514.75L518.143 237.273H510.357L507.865 235.38Z" fill="#335FFE"/>
<path d="M467.871 189.912C467.866 189.916 467.824 189.865 467.745 189.761C467.657 189.642 467.544 189.489 467.402 189.297C467.092 188.864 466.658 188.257 466.101 187.479C464.963 185.864 463.329 183.544 461.283 180.64C457.183 174.766 451.435 166.53 444.782 156.999L444.747 156.948V156.886C444.744 152.015 444.741 146.751 444.739 141.305C444.762 125.9 444.783 111.957 444.798 101.837C444.826 96.8054 444.848 92.7255 444.864 89.8771C444.88 88.4841 444.893 87.3932 444.902 86.6254C444.911 86.2706 444.917 85.9911 444.922 85.7798C444.929 85.5893 444.936 85.4917 444.943 85.4917C444.95 85.4917 444.957 85.5893 444.964 85.7798C444.969 85.9911 444.976 86.2706 444.985 86.6254C444.994 87.3932 445.007 88.4841 445.023 89.8771C445.039 92.7255 445.061 96.8054 445.088 101.837C445.104 111.957 445.125 125.9 445.148 141.305C445.145 146.751 445.143 152.015 445.14 156.886L445.105 156.774C451.71 166.339 457.416 174.603 461.487 180.499C463.492 183.431 465.094 185.772 466.21 187.403C466.744 188.196 467.161 188.816 467.458 189.258C467.589 189.458 467.692 189.617 467.774 189.742C467.843 189.851 467.876 189.909 467.871 189.912Z" fill="#263238"/>
<path d="M81.6659 266.595H77.7326V160.666C77.7326 153.305 83.7106 147.317 91.0587 147.317H118.451V151.257H91.0587C85.8797 151.257 81.6659 155.478 81.6659 160.666V266.595Z" fill="#E0E0E0"/>
<path d="M81.666 266.595C81.666 266.595 81.6563 266.329 81.6515 265.824C81.6481 265.31 81.6433 264.563 81.637 263.586C81.63 261.616 81.6199 258.726 81.6068 255.002C81.591 247.548 81.5681 236.765 81.5396 223.405C81.523 210.055 81.5031 194.132 81.481 176.394C81.4783 171.961 81.4755 167.414 81.4726 162.766C81.4887 161.607 81.4133 160.436 81.5891 159.236C81.7647 158.05 82.1691 156.891 82.779 155.843C83.9911 153.743 86.0442 152.111 88.4248 151.435C89.606 151.074 90.8847 151.032 92.0898 151.057C93.3102 151.057 94.536 151.056 95.7671 151.056C98.2293 151.055 100.712 151.055 103.215 151.054C108.22 151.054 113.303 151.053 118.451 151.052L118.247 151.257C118.247 150.014 118.247 148.668 118.247 147.317L118.451 147.522C117.479 147.522 116.426 147.522 115.371 147.522C110.75 147.522 106.176 147.522 101.657 147.522C99.3981 147.521 97.1529 147.521 94.9227 147.521C93.8075 147.52 92.6962 147.52 91.5886 147.52C91.0308 147.507 90.4929 147.553 89.9487 147.576C89.4075 147.615 88.8725 147.72 88.3394 147.807C86.2272 148.277 84.2362 149.241 82.6065 150.622C80.9928 152.015 79.69 153.761 78.9049 155.713C78.7354 156.21 78.5137 156.69 78.407 157.204L78.2111 157.963C78.1604 158.219 78.1292 158.479 78.0872 158.736C77.9142 159.764 77.9335 160.805 77.9281 161.858C77.9271 163.955 77.9263 166.033 77.9253 168.09C77.913 184.549 77.9017 199.711 77.8917 213.036C77.8349 239.658 77.7937 258.929 77.7773 266.595L77.7327 266.55C79.0466 266.562 80.0227 266.57 80.6812 266.576C81.3348 266.584 81.666 266.595 81.666 266.595C81.666 266.595 81.3568 266.606 80.7069 266.614C80.0427 266.62 79.058 266.628 77.7327 266.64L77.6879 266.64L77.6878 266.595C77.6715 258.929 77.6303 239.658 77.5734 213.036C77.5635 199.711 77.5522 184.549 77.5399 168.09C77.539 166.033 77.538 163.955 77.5371 161.858C77.5417 160.818 77.5207 159.738 77.698 158.678C77.7409 158.413 77.7733 158.146 77.8254 157.882L78.0263 157.1C78.1368 156.57 78.3632 156.075 78.5384 155.564C79.3463 153.552 80.6864 151.752 82.3485 150.316C84.0265 148.892 86.078 147.897 88.2559 147.412C88.8052 147.321 89.357 147.214 89.9147 147.173C90.473 147.148 91.0383 147.102 91.5886 147.115L94.9227 147.114C97.1529 147.114 99.3981 147.113 101.657 147.113C106.176 147.113 110.75 147.112 115.371 147.112C116.426 147.112 117.479 147.112 118.451 147.112H118.656V147.317C118.656 148.668 118.656 150.014 118.656 151.257V151.462H118.451C113.303 151.462 108.22 151.461 103.215 151.46C100.712 151.46 98.2293 151.459 95.7671 151.459C94.536 151.458 93.3102 151.458 92.0898 151.458C90.8599 151.433 89.6785 151.474 88.5342 151.818C86.2533 152.464 84.2821 154.028 83.1182 156.041C82.5323 157.045 82.1439 158.157 81.9744 159.294C81.8051 160.425 81.8753 161.607 81.8593 162.771C81.8564 167.432 81.8536 171.99 81.8509 176.435C81.8288 194.206 81.8089 210.159 81.7922 223.534C81.7639 236.882 81.7409 247.655 81.7251 255.103C81.7119 258.807 81.7019 261.682 81.6949 263.642C81.6886 264.607 81.6838 265.345 81.6805 265.852C81.6756 266.348 81.666 266.595 81.666 266.595Z" fill="#263238"/>
<g opacity="0.3">
<path d="M110.487 151.295H118.452V147.272H110.487V151.295Z" fill="black"/>
</g>
<path d="M146.927 160.124L124.084 194.603V99.9414L146.927 88.9707V160.124Z" fill="#E0E0E0"/>
<path d="M124.084 99.9414H118.452V194.603H124.084V99.9414Z" fill="#455A64"/>
<path d="M147.012 88.9286L141.133 88.5815L118.452 99.9414L124.169 100.288L147.012 88.9286Z" fill="#263238"/>
<path d="M132.938 181.042H132.152V133.332L140.923 127.077V169.428H140.137V128.606L132.938 133.738V181.042Z" fill="#335FFE"/>
<path d="M157.824 182.292C157.711 182.292 157.619 174.871 157.619 165.719C157.619 156.564 157.711 149.145 157.824 149.145C157.937 149.145 158.029 156.564 158.029 165.719C158.029 174.871 157.937 182.292 157.824 182.292Z" fill="#263238"/>
<path d="M163.674 181.155C163.651 181.155 163.629 180.853 163.608 180.295C163.593 179.67 163.574 178.87 163.551 177.898C163.533 175.777 163.507 172.916 163.478 169.611C163.478 169.584 163.484 169.557 163.494 169.534C164.095 168.108 164.746 166.564 165.423 164.961C167.202 160.764 168.835 156.974 170.035 154.238C170.621 152.924 171.107 151.835 171.476 151.007C171.824 150.248 172.029 149.834 172.055 149.845C172.082 149.856 171.926 150.291 171.623 151.07C171.284 151.911 170.839 153.016 170.302 154.352C169.17 157.116 167.58 160.924 165.8 165.121C165.117 166.722 164.46 168.264 163.853 169.687L163.869 169.611C163.84 172.916 163.814 175.777 163.796 177.898C163.773 178.87 163.754 179.67 163.739 180.295C163.718 180.853 163.696 181.155 163.674 181.155Z" fill="#263238"/>
<path d="M168.544 180.106C168.525 180.106 168.506 179.914 168.488 179.555C168.475 179.132 168.458 178.617 168.438 178.001C168.419 176.581 168.394 174.697 168.364 172.476C168.364 172.452 168.37 172.426 168.379 172.405C169.171 170.517 170.085 168.339 171.057 166.025C172.626 162.325 174.067 158.985 175.129 156.576C175.644 155.429 176.073 154.473 176.406 153.731C176.716 153.063 176.9 152.699 176.926 152.71C176.952 152.721 176.818 153.106 176.553 153.793C176.251 154.549 175.862 155.522 175.396 156.689C174.402 159.128 173.003 162.485 171.434 166.185C170.446 168.493 169.516 170.663 168.71 172.546L168.724 172.476C168.694 174.697 168.669 176.581 168.65 178.001C168.63 178.617 168.614 179.132 168.6 179.555C168.582 179.914 168.564 180.106 168.544 180.106Z" fill="#263238"/>
<path d="M153.792 181.374C153.769 181.374 153.747 181.072 153.727 180.513C153.712 179.889 153.693 179.089 153.67 178.117C153.651 175.996 153.626 173.135 153.597 169.829L153.612 169.906C153.005 168.483 152.348 166.941 151.666 165.34C149.886 161.143 148.296 157.335 147.164 154.571C146.626 153.235 146.181 152.13 145.843 151.289C145.54 150.51 145.384 150.075 145.41 150.063C145.436 150.052 145.641 150.467 145.99 151.226C146.359 152.054 146.844 153.142 147.431 154.457C148.631 157.193 150.263 160.983 152.043 165.18C152.719 166.783 153.37 168.327 153.972 169.753C153.982 169.777 153.987 169.805 153.987 169.829C153.958 173.135 153.933 175.996 153.914 178.117C153.891 179.089 153.872 179.889 153.857 180.513C153.837 181.072 153.815 181.374 153.792 181.374Z" fill="#263238"/>
<path d="M148.921 180.325C148.902 180.325 148.883 180.133 148.865 179.774C148.852 179.351 148.835 178.836 148.815 178.22C148.796 176.8 148.771 174.916 148.741 172.694L148.756 172.765C147.949 170.882 147.02 168.711 146.031 166.404C144.462 162.704 143.063 159.346 142.07 156.908C141.603 155.74 141.214 154.768 140.912 154.012C140.648 153.325 140.513 152.94 140.539 152.928C140.565 152.917 140.749 153.282 141.059 153.95C141.392 154.692 141.821 155.648 142.336 156.795C143.398 159.204 144.839 162.544 146.408 166.243C147.38 168.558 148.294 170.736 149.087 172.624C149.097 172.646 149.101 172.672 149.101 172.694C149.072 174.916 149.046 176.8 149.027 178.22C149.008 178.836 148.991 179.351 148.977 179.774C148.96 180.133 148.941 180.325 148.921 180.325Z" fill="#263238"/>
<path d="M148.597 172.136C148.605 172.146 148.545 171.965 148.714 171.716C148.877 171.472 149.221 171.202 149.708 170.965C150.684 170.491 152.208 170.101 154.11 169.862C156.015 169.625 158.303 169.542 160.834 169.667C162.099 169.731 163.427 169.848 164.793 170.074C165.476 170.19 166.168 170.332 166.86 170.543C167.206 170.65 167.552 170.773 167.89 170.946C168.06 171.03 168.226 171.135 168.383 171.266C168.535 171.396 168.702 171.575 168.74 171.843C168.778 172.115 168.631 172.356 168.485 172.499C168.334 172.65 168.168 172.755 168.001 172.852C167.666 173.035 167.32 173.165 166.976 173.277C166.285 173.498 165.592 173.643 164.91 173.762C163.544 173.996 162.216 174.115 160.951 174.183C158.418 174.311 156.137 174.23 154.227 174.075C152.321 173.901 150.778 173.631 149.769 173.227C149.267 173.029 148.9 172.789 148.723 172.553C148.543 172.308 148.605 172.125 148.597 172.136C148.632 172.129 148.604 172.297 148.788 172.501C148.969 172.701 149.327 172.907 149.825 173.077C150.822 173.425 152.355 173.65 154.25 173.786C156.147 173.903 158.42 173.953 160.93 173.806C162.183 173.728 163.499 173.602 164.841 173.367C165.51 173.246 166.189 173.102 166.85 172.888C167.179 172.781 167.506 172.656 167.802 172.494C168.086 172.339 168.379 172.092 168.334 171.896C168.311 171.684 167.993 171.457 167.703 171.311C167.4 171.155 167.071 171.036 166.74 170.933C166.075 170.729 165.396 170.587 164.726 170.47C163.382 170.242 162.067 170.118 160.813 170.044C158.303 169.9 156.032 169.952 154.143 170.15C152.256 170.35 150.744 170.693 149.774 171.11C149.291 171.319 148.953 171.555 148.782 171.764C148.604 171.975 148.633 172.142 148.597 172.136Z" fill="#263238"/>
<path d="M144.412 162.061C144.399 162.075 144.371 161.801 144.709 161.546C145.028 161.296 145.571 161.057 146.289 160.842C147.728 160.412 149.871 160.052 152.531 159.81C155.192 159.571 158.375 159.443 161.907 159.557C163.673 159.618 165.526 159.738 167.438 159.983C168.393 160.109 169.363 160.262 170.338 160.496C170.825 160.614 171.314 160.751 171.796 160.94C172.037 161.04 172.277 161.148 172.508 161.298C172.723 161.448 173.004 161.657 173.035 162.059C173.006 162.46 172.725 162.672 172.51 162.821C172.279 162.973 172.039 163.08 171.798 163.18C171.316 163.37 170.827 163.507 170.34 163.625C169.365 163.859 168.394 164.013 167.439 164.138C165.527 164.384 163.673 164.503 161.907 164.564C158.375 164.678 155.191 164.551 152.53 164.311C149.87 164.069 147.727 163.71 146.289 163.279C145.571 163.064 145.027 162.825 144.709 162.576C144.371 162.32 144.399 162.046 144.412 162.061C144.429 162.055 144.427 162.29 144.758 162.509C145.076 162.726 145.616 162.936 146.332 163.125C147.766 163.504 149.903 163.818 152.554 164.022C155.206 164.224 158.379 164.32 161.893 164.186C163.65 164.115 165.493 163.988 167.386 163.74C168.332 163.613 169.292 163.458 170.244 163.228C170.719 163.112 171.194 162.978 171.647 162.8C171.87 162.707 172.091 162.606 172.283 162.48C172.478 162.358 172.623 162.185 172.625 162.06C172.622 161.935 172.476 161.762 172.281 161.64C172.089 161.514 171.867 161.414 171.644 161.321C171.192 161.143 170.717 161.009 170.242 160.893C169.291 160.663 168.331 160.509 167.385 160.382C165.492 160.133 163.65 160.006 161.893 159.935C158.379 159.801 155.207 159.898 152.555 160.099C149.903 160.303 147.766 160.618 146.332 160.996C145.616 161.185 145.077 161.396 144.758 161.612C144.427 161.831 144.429 162.067 144.412 162.061Z" fill="#263238"/>
<path d="M140.632 151.757H137.381V153.333H140.632V151.757Z" fill="#335FFE"/>
<path d="M158.918 157.87C149.44 157.87 139.845 156.041 139.845 152.545C139.845 149.049 149.44 147.22 158.918 147.22C168.396 147.22 177.992 149.049 177.992 152.545C177.992 156.041 168.396 157.87 158.918 157.87ZM158.918 148.796C147.429 148.796 141.418 151.237 141.418 152.545C141.418 153.853 147.429 156.294 158.918 156.294C170.408 156.294 176.418 153.853 176.418 152.545C176.418 151.237 170.408 148.796 158.918 148.796Z" fill="#335FFE"/>
<g opacity="0.3">
<path d="M145.41 143.835L145.18 92.3523L125.762 102.363L145.41 143.835Z" fill="white"/>
</g>
<g opacity="0.3">
<path d="M145.932 151.295L125.762 110.456V119.181L145.41 159.694L145.932 151.295Z" fill="white"/>
</g>
<path d="M74.64 297.187L93.9205 276.656L84.0901 238.817L81.5985 240.71H73.8123L55.9352 297.187H74.64Z" fill="#335FFE"/>
<g opacity="0.3">
<path d="M55.9352 297.187H74.64L81.5985 240.71H73.8123L55.9352 297.187Z" fill="black"/>
</g>
<path d="M84.0901 238.817H77.2052L73.8123 240.71H81.5985L84.0901 238.817Z" fill="#335FFE"/>
<path d="M124.042 194.603C124.037 194.6 124.07 194.539 124.139 194.425C124.22 194.295 124.323 194.128 124.453 193.919C124.75 193.458 125.166 192.809 125.7 191.978C126.813 190.274 128.412 187.825 130.412 184.761C134.471 178.602 140.156 169.975 146.72 160.014L146.687 160.123C146.691 155.444 146.694 150.414 146.698 145.219C146.74 129.683 146.777 115.62 146.805 105.414C146.838 100.339 146.866 96.2237 146.884 93.3514C146.903 91.9461 146.917 90.8458 146.927 90.0719L146.948 89.219C146.955 89.0269 146.962 88.9285 146.969 88.9285C146.976 88.9285 146.983 89.0269 146.99 89.2191C146.995 89.4318 147.001 89.7139 147.009 90.0719C147.017 90.846 147.029 91.9462 147.044 93.3515C147.056 96.2239 147.073 100.339 147.095 105.414C147.098 115.621 147.102 129.683 147.107 145.219C147.099 150.414 147.09 155.445 147.082 160.124L147.082 160.184L147.049 160.233C140.437 170.161 134.709 178.761 130.62 184.9C128.579 187.936 126.948 190.363 125.812 192.053C125.255 192.868 124.82 193.505 124.511 193.957C124.369 194.159 124.256 194.319 124.168 194.444C124.089 194.552 124.047 194.606 124.042 194.603Z" fill="#263238"/>
</svg>
