<svg width="11" height="12" viewBox="0 0 11 12" fill="none" xmlns="http://www.w3.org/2000/svg">
<path d="M0.375668 6.03568C0.374819 5.88978 0.417438 5.74694 0.49809 5.62536C0.578743 5.50378 0.693775 5.40897 0.828521 5.35303C0.963265 5.29708 1.11162 5.28253 1.25467 5.31123C1.39772 5.33992 1.52898 5.41057 1.63172 5.51416L5.47331 9.35576L9.31491 5.51416C9.45253 5.37735 9.6387 5.30056 9.83275 5.30056C10.0268 5.30056 10.213 5.37735 10.3506 5.51416C10.4194 5.58244 10.4741 5.66368 10.5114 5.75319C10.5487 5.8427 10.5679 5.93871 10.5679 6.03568C10.5679 6.13264 10.5487 6.22865 10.5114 6.31816C10.4741 6.40767 10.4194 6.48891 10.3506 6.55719L5.99483 10.913C5.9268 10.9824 5.84568 11.0376 5.75616 11.0754C5.66663 11.1132 5.5705 11.1329 5.47331 11.1333C5.37613 11.1329 5.27999 11.1132 5.19047 11.0754C5.10095 11.0376 5.01982 10.9824 4.9518 10.913L0.596027 6.55719C0.526623 6.48917 0.471408 6.40804 0.433582 6.31852C0.395757 6.229 0.376071 6.13286 0.375668 6.03568Z" fill="#A1A5B7"/>
<path opacity="0.3" d="M4.73895 10.399L4.73895 1.67276C4.73895 1.47795 4.81633 1.29112 4.95408 1.15337C5.09184 1.01562 5.27867 0.938232 5.47348 0.938232C5.66829 0.938232 5.85512 1.01562 5.99287 1.15337C6.13062 1.29112 6.20801 1.47795 6.20801 1.67276L6.20801 10.399C6.20801 10.5938 6.13062 10.7806 5.99287 10.9184C5.85512 11.0561 5.66829 11.1335 5.47348 11.1335C5.27867 11.1335 5.09184 11.0561 4.95408 10.9184C4.81633 10.7806 4.73895 10.5938 4.73895 10.399Z" fill="#A1A5B7"/>
</svg>
