<svg xmlns="http://www.w3.org/2000/svg" width="14" height="14" viewBox="0 0 14 14" fill="none">
  <path d="M11.2224 2.77778C10.0224 1.62222 8.51125 1 6.86681 1C5.22237 1 3.66682 1.62222 2.51126 2.77778C2.33349 2.95555 2.33349 3.26666 2.51126 3.4C2.68904 3.53333 2.95571 3.53333 3.13348 3.4C4.1557 2.37778 5.44459 1.84444 6.82237 1.84444C8.20014 1.84444 9.53347 2.42222 10.5113 3.4C12.5557 5.44444 12.5557 8.77777 10.5113 10.8222C9.53347 11.8444 8.20014 12.3778 6.82237 12.3778C5.44459 12.3778 4.11126 11.8 3.13348 10.8222C2.95571 10.6444 2.68904 10.6444 2.51126 10.8222C2.33349 11 2.33349 11.2667 2.51126 11.4444C3.71126 12.6 5.22237 13.2222 6.86681 13.2222C8.51125 13.2222 10.0668 12.6889 11.2224 11.4889C12.3779 10.2889 13.0001 8.77777 13.0001 7.13332C13.0001 5.48888 12.4224 3.93333 11.2224 2.77778Z" fill="#178582" stroke="#178582" stroke-width="0.5"/>
  <path d="M3.08889 7.08873C3.08889 6.82206 2.91111 6.64429 2.64444 6.64429H1.44444C1.17778 6.64429 1 6.82206 1 7.08873C1 7.3554 1.17778 7.53317 1.44444 7.53317H2.64444C2.91111 7.53317 3.08889 7.3554 3.08889 7.08873Z" fill="#178582" stroke="#178582" stroke-width="0.5"/>
  <path d="M3.84473 7.08914C3.84473 7.35581 4.0225 7.53359 4.28917 7.53359H7.88917L5.84472 9.57803C5.66695 9.75581 5.66695 10.0225 5.84472 10.2003C5.93361 10.2891 6.0225 10.3336 6.15583 10.3336C6.28917 10.3336 6.37806 10.2891 6.46695 10.2003L9.2225 7.4447C9.31139 7.35581 9.35583 7.26692 9.35583 7.13359C9.35583 7.00026 9.31139 6.91137 9.26694 6.86692C9.2225 6.82248 9.17805 6.77803 9.13361 6.73359L6.46695 4.06693C6.28917 3.88915 6.0225 3.88915 5.84472 4.06693C5.66695 4.2447 5.66695 4.51137 5.84472 4.68915L7.80028 6.6447H4.28917C4.0225 6.6447 3.84473 6.82248 3.84473 7.08914Z" fill="#178582" stroke="#178582" stroke-width="0.5"/>
</svg>