<svg width="15" height="15" viewBox="0 0 15 15" fill="none" xmlns="http://www.w3.org/2000/svg">
<path fill-rule="evenodd" clip-rule="evenodd" d="M7.63941 4.31796C8.28132 4.31796 8.80652 3.78938 8.80652 3.14335C8.80652 2.49732 8.28132 1.96875 7.63941 1.96875C6.9975 1.96875 6.4723 2.49732 6.4723 3.14335C6.4723 3.78938 6.9975 4.31796 7.63941 4.31796ZM8.80651 7.25408C8.80651 7.90011 8.28131 8.42868 7.6394 8.42868C6.99749 8.42868 6.47229 7.90011 6.47229 7.25408C6.47229 6.60805 6.99749 6.07947 7.6394 6.07947C8.28131 6.07947 8.80651 6.60805 8.80651 7.25408ZM6.47229 11.3663C6.47229 10.7203 6.99749 10.1917 7.6394 10.1917C8.28131 10.1917 8.80651 10.7203 8.80651 11.3663C8.80651 12.0124 8.28131 12.5409 7.6394 12.5409C6.99749 12.5409 6.47229 12.0124 6.47229 11.3663Z" fill="black"/>
<mask id="mask0_440_10481" style="mask-type:luminance" maskUnits="userSpaceOnUse" x="6" y="1" width="3" height="12">
<path fill-rule="evenodd" clip-rule="evenodd" d="M7.63941 4.31796C8.28132 4.31796 8.80652 3.78938 8.80652 3.14335C8.80652 2.49732 8.28132 1.96875 7.63941 1.96875C6.9975 1.96875 6.4723 2.49732 6.4723 3.14335C6.4723 3.78938 6.9975 4.31796 7.63941 4.31796ZM8.80651 7.25408C8.80651 7.90011 8.28131 8.42868 7.6394 8.42868C6.99749 8.42868 6.47229 7.90011 6.47229 7.25408C6.47229 6.60805 6.99749 6.07947 7.6394 6.07947C8.28131 6.07947 8.80651 6.60805 8.80651 7.25408ZM6.47229 11.3663C6.47229 10.7203 6.99749 10.1917 7.6394 10.1917C8.28131 10.1917 8.80651 10.7203 8.80651 11.3663C8.80651 12.0124 8.28131 12.5409 7.6394 12.5409C6.99749 12.5409 6.47229 12.0124 6.47229 11.3663Z" fill="white"/>
</mask>
<g mask="url(#mask0_440_10481)">
<rect x="0.636719" y="0.207031" width="14.0053" height="14.0952" fill="#6E6B7B"/>
</g>
</svg>
