<svg xmlns="http://www.w3.org/2000/svg" width="12" height="15" viewBox="0 0 12 15" fill="none">
  <path d="M10.101 14.1411H1.899C1.64988 14.1411 1.40981 14.0365 1.24026 13.8539C1.07071 13.6713 0.984022 13.4241 1.00243 13.1755L1.67254 4.12908C1.69256 3.85861 1.92083 3.64673 2.19207 3.64673H9.80793C10.0792 3.64673 10.3074 3.85861 10.3275 4.12908L10.9976 13.1755C11.016 13.4241 10.9293 13.6713 10.7597 13.8539C10.5902 14.0365 10.3501 14.1411 10.101 14.1411ZM2.19207 3.9324C2.06953 3.9324 1.96645 4.02809 1.95738 4.15029L1.28727 13.1967C1.27458 13.3687 1.33219 13.5331 1.44957 13.6594C1.56695 13.7858 1.72653 13.8554 1.899 13.8554H10.101C10.2735 13.8554 10.4331 13.7858 10.5504 13.6594C10.6678 13.5331 10.7254 13.3687 10.7127 13.1967L10.0426 4.15029C10.0336 4.02809 9.93047 3.9324 9.80793 3.9324H2.19207Z" fill="#178582" stroke="#178582"/>
  <path d="M7.89113 3.93235H4.11013C4.06528 3.93235 4.02309 3.91129 3.99609 3.87558C3.9691 3.83973 3.96045 3.79342 3.9728 3.75032L4.41735 2.19431C4.61829 1.49114 5.26936 1 6.00063 1C6.7319 1 7.38297 1.49114 7.58391 2.19431L8.02846 3.75032C8.04081 3.79342 8.03216 3.83973 8.00517 3.87558C7.97818 3.91129 7.93598 3.93235 7.89113 3.93235ZM4.29948 3.64668H7.70178L7.30925 2.2727C7.14319 1.69159 6.60504 1.28567 6.00063 1.28567C5.39622 1.28567 4.85807 1.69159 4.69201 2.2727L4.29948 3.64668Z" fill="#178582" stroke="#178582"/>
</svg>