<svg width="26" height="17" viewBox="0 0 26 17" fill="none" xmlns="http://www.w3.org/2000/svg">
<path d="M2.06761 7.34021L5.17258 8.33941V12.2887C5.17258 13.383 5.83792 14.3347 6.81377 14.6677L9.07596 15.3814C10.4067 15.8097 11.7374 16 13.0681 16C14.3988 16 15.7738 15.8097 17.1045 15.3814L19.3223 14.6677C20.2982 14.3347 20.9635 13.383 20.9635 12.2887V8.29183L23.8911 7.34021C24.5564 7.14988 25 6.48374 25 5.77002C25 5.00872 24.5564 4.39017 23.8911 4.19984L14.6649 1.2498C13.556 0.916733 12.4027 0.916733 11.3382 1.2498L2.11197 4.19984C1.44662 4.39017 1.00305 5.0563 1.00305 5.77002C0.958693 6.53132 1.40226 7.14988 2.06761 7.34021ZM19.1893 12.2887C19.1893 12.5741 19.0562 12.7645 18.7901 12.8596L16.5722 13.5734C14.2657 14.2871 11.8261 14.2871 9.56388 13.5734L7.3017 12.8596C7.07991 12.7645 6.90248 12.5741 6.90248 12.2887V8.91039L11.2938 10.2902C11.8261 10.4806 12.4027 10.5282 12.9793 10.5282C13.556 10.5282 14.0883 10.433 14.6649 10.2902L19.2336 8.86281V12.2887H19.1893ZM11.8261 3.05789C12.5801 2.81998 13.3786 2.81998 14.177 3.05789L22.7378 5.77002L14.177 8.48216C13.4229 8.72006 12.6245 8.72006 11.8261 8.48216L3.22088 5.77002L11.8261 3.05789Z" fill="#FF9920" stroke="#FF9920" stroke-width="0.4"/>
</svg>
