<svg xmlns="http://www.w3.org/2000/svg" width="47" height="47" viewBox="0 0 47 47" fill="none">
  <circle cx="23.5" cy="23.5" r="23.5" fill="#178582" fill-opacity="0.1"/>
  <path d="M31.3255 14.7741L14.5922 31.5074C14.3433 31.7563 14.3433 32.1598 14.5922 32.4086C14.8411 32.6575 15.2446 32.6575 15.4934 32.4086L32.2267 15.6753C32.4756 15.4264 32.4756 15.0229 32.2267 14.7741C31.9779 14.5252 31.5744 14.5252 31.3255 14.7741Z" fill="#178582" stroke="#178582" stroke-width="0.831858"/>
  <path d="M32.866 31.7954C32.866 32.1474 32.5807 32.4327 32.2287 32.4327C31.8768 32.4327 31.5915 32.1474 31.5915 31.7954V16.6984C31.5915 16.0092 31.0328 15.4506 30.3437 15.4506H15.2639C14.9024 15.4506 14.6094 15.1575 14.6094 14.7961C14.6094 14.4346 14.9024 14.1416 15.2639 14.1416H31.6182C32.3073 14.1416 32.866 14.7003 32.866 15.3894V31.7954Z" fill="#178582" stroke="#178582" stroke-width="0.831858"/>
</svg>