<svg xmlns="http://www.w3.org/2000/svg" width="133" height="133" viewBox="0 0 133 133" fill="none">
  <circle cx="66.5" cy="66.5" r="66.5" fill="#BEFFDD" fill-opacity="0.5"/>
  <path d="M78.5461 62.2983C79.8152 61.0292 79.8152 58.9714 78.5461 57.7021C77.277 56.4329 75.2191 56.4329 73.95 57.7021L63.248 68.4041L59.0462 64.2022C57.7769 62.933 55.7192 62.933 54.4499 64.2022C53.1807 65.4713 53.1807 67.5292 54.4499 68.7983L60.95 75.2983C62.2191 76.5674 64.277 76.5674 65.5461 75.2983L78.5461 62.2983Z" fill="#178582"/>
  <path fill-rule="evenodd" clip-rule="evenodd" d="M68.4994 34.6899C67.3235 33.7707 65.6726 33.7707 64.4967 34.6899L59.1038 38.905L52.326 37.951C50.848 37.7429 49.4183 38.5684 48.8595 39.9524L46.2967 46.2992L39.95 48.8619C38.5659 49.4207 37.7405 50.8504 37.9485 52.3285L38.9025 59.1063L34.6874 64.4991C33.7682 65.675 33.7682 67.326 34.6874 68.5018L38.9025 73.8946L37.9485 80.6724C37.7405 82.1505 38.5659 83.5802 39.95 84.1392L46.2967 86.7018L48.8595 93.0484C49.4183 94.4326 50.848 95.2581 52.326 95.0501L59.1038 94.0959L64.4967 98.3112C65.6726 99.2303 67.3235 99.2303 68.4994 98.3112L73.8921 94.0959L80.67 95.0501C82.1481 95.2581 83.5778 94.4326 84.1368 93.0484L86.6994 86.7018L93.046 84.1392C94.4302 83.5802 95.2557 82.1505 95.0477 80.6724L94.0935 73.8946L98.3087 68.5018C99.2278 67.326 99.2278 65.675 98.3087 64.4991L94.0935 59.1063L95.0477 52.3285C95.2557 50.8504 94.4302 49.4207 93.046 48.8619L86.6994 46.2992L84.1368 39.9524C83.5778 38.5684 82.1481 37.7429 80.67 37.951L73.8921 38.905L68.4994 34.6899ZM62.0192 44.8763L66.4981 41.3755L70.9769 44.8763C71.6721 45.4195 72.558 45.6569 73.4313 45.5339L79.0606 44.7416L81.189 50.0128C81.5192 50.8307 82.1679 51.4793 82.9856 51.8095L88.2568 53.938L87.4648 59.5672C87.3416 60.4405 87.5792 61.3265 88.1222 62.0217L91.6231 66.5005L88.1222 70.9793C87.5792 71.6745 87.3416 72.5604 87.4648 73.4337L88.2568 79.063L82.9856 81.1915C82.1679 81.5217 81.5192 82.1704 81.189 82.9881L79.0606 88.2592L73.4313 87.4672C72.558 87.344 71.6721 87.5816 70.9769 88.1247L66.4981 91.6256L62.0192 88.1247C61.324 87.5816 60.4381 87.344 59.5648 87.4672L53.9355 88.2592L51.8071 82.9881C51.4768 82.1704 50.8283 81.5217 50.0103 81.1915L44.7391 79.063L45.5315 73.4337C45.6544 72.5604 45.417 71.6745 44.8738 70.9793L41.373 66.5005L44.8738 62.0217C45.417 61.3265 45.6544 60.4405 45.5315 59.5672L44.7391 53.938L50.0103 51.8095C50.8283 51.4793 51.4768 50.8307 51.8071 50.0128L53.9355 44.7416L59.5648 45.5339C60.4381 45.6569 61.324 45.4195 62.0192 44.8763Z" fill="#178582"/>
</svg>