<svg width="19" height="22" viewBox="0 0 19 22" fill="none" xmlns="http://www.w3.org/2000/svg">
<path d="M12.3097 4H3.34514C2.72317 4 2.12668 4.24708 1.68688 4.68688C1.24708 5.12668 1 5.72317 1 6.34514V19.1451C1 19.7671 1.24708 20.3636 1.68688 20.8034C2.12668 21.2432 2.72317 21.4903 3.34514 21.4903H12.8263C13.1346 21.4903 13.44 21.4295 13.7248 21.3113C14.0096 21.1932 14.2683 21.02 14.4862 20.8018C14.704 20.5835 14.8766 20.3245 14.9942 20.0394C15.1118 19.7544 15.172 19.4489 15.1714 19.1406V6.85714C15.169 6.09933 14.8666 5.37332 14.3303 4.83789C13.794 4.30247 13.0675 4.0012 12.3097 4ZM14.2571 19.1406C14.2571 19.5201 14.1064 19.884 13.8381 20.1523C13.5697 20.4207 13.2058 20.5714 12.8263 20.5714H3.34514C2.96566 20.5714 2.60171 20.4207 2.33337 20.1523C2.06504 19.884 1.91429 19.5201 1.91429 19.1406V6.34057C1.9155 5.96188 2.06678 5.59911 2.33499 5.33176C2.60319 5.06441 2.96645 4.91428 3.34514 4.91429H12.3097C12.8254 4.91428 13.3201 5.11883 13.6851 5.48306C14.0502 5.84728 14.2559 6.34144 14.2571 6.85714V19.1406Z" fill="#FF9920" stroke="#FF9920"/>
<path d="M15.5638 1H4.74328C4.62203 1 4.50576 1.04816 4.42003 1.13389C4.3343 1.21963 4.28613 1.3359 4.28613 1.45714C4.28613 1.57838 4.3343 1.69466 4.42003 1.78039C4.50576 1.86612 4.62203 1.91429 4.74328 1.91429H15.5638C15.7644 1.91489 15.9628 1.95497 16.1478 2.03226C16.3328 2.10954 16.5008 2.22252 16.6422 2.36472C16.7835 2.50693 16.8955 2.67559 16.9717 2.86106C17.0478 3.04654 17.0867 3.2452 17.0861 3.44571V16.2457C17.0861 16.367 17.1343 16.4832 17.22 16.569C17.3058 16.6547 17.422 16.7029 17.5433 16.7029C17.6645 16.7029 17.7808 16.6547 17.8665 16.569C17.9523 16.4832 18.0004 16.367 18.0004 16.2457V3.44571C18.0004 2.79865 17.744 2.17796 17.2873 1.71956C16.8306 1.26116 16.2109 1.00242 15.5638 1Z" fill="#FF9920" stroke="#FF9920"/>
</svg>
