<svg width="20" height="21" viewBox="0 0 20 21" fill="none" xmlns="http://www.w3.org/2000/svg">
<path d="M10 20.6241C8.02219 20.6241 6.08879 20.0377 4.4443 18.9388C2.79981 17.84 1.51808 16.2782 0.761209 14.451C0.00433238 12.6237 -0.1937 10.6131 0.192152 8.67325C0.578004 6.73344 1.53041 4.95161 2.92894 3.55308C4.32746 2.15456 6.10929 1.20215 8.0491 0.816297C9.98891 0.430445 11.9996 0.628478 13.8268 1.38535C15.6541 2.14223 17.2159 3.42396 18.3147 5.06845C19.4135 6.71294 20 8.64633 20 10.6241C19.9966 13.2753 18.942 15.8169 17.0673 17.6915C15.1927 19.5661 12.6511 20.6208 10 20.6241ZM10 1.89803C8.27414 1.89803 6.58704 2.40981 5.15203 3.36865C3.71703 4.32749 2.59858 5.69032 1.93812 7.28481C1.27767 8.8793 1.10486 10.6338 1.44156 12.3265C1.77826 14.0192 2.60934 15.5741 3.82971 16.7944C5.05008 18.0148 6.60492 18.8459 8.29762 19.1826C9.99032 19.5193 11.7449 19.3465 13.3393 18.686C14.9338 18.0256 16.2967 16.9071 17.2555 15.4721C18.2143 14.0371 18.7261 12.35 18.7261 10.6241C18.7227 8.31087 17.8023 6.09331 16.1666 4.45758C14.5308 2.82184 12.3133 1.9014 10 1.89803Z" fill="#5E6278"/>
<path d="M10.0001 15.3375C9.83117 15.3375 9.66916 15.2704 9.54971 15.1509C9.43026 15.0315 9.36316 14.8694 9.36316 14.7005V9.17185C9.36316 9.00293 9.43026 8.84092 9.54971 8.72147C9.66916 8.60202 9.83117 8.53491 10.0001 8.53491C10.169 8.53491 10.331 8.60202 10.4505 8.72147C10.5699 8.84092 10.637 9.00293 10.637 9.17185V14.7005C10.637 14.8694 10.5699 15.0315 10.4505 15.1509C10.331 15.2704 10.169 15.3375 10.0001 15.3375Z" fill="#5E6278"/>
<path d="M9.97469 7.66868C10.4812 7.66868 10.8919 7.25804 10.8919 6.75149C10.8919 6.24493 10.4812 5.83429 9.97469 5.83429C9.46814 5.83429 9.0575 6.24493 9.0575 6.75149C9.0575 7.25804 9.46814 7.66868 9.97469 7.66868Z" fill="#5E6278"/>
</svg>
