<svg width="20" height="20" viewBox="0 0 20 20" fill="none" xmlns="http://www.w3.org/2000/svg">
                    <path d="M7.83333 10.9427V10.7356L7.68689 10.5891L0.939553 3.84178L0.939397 3.84162C0.655384 3.55786 0.5 3.18249 0.5 2.781V1.33333C0.5 0.874142 0.874142 0.5 1.33333 0.5H18.6667C19.1259 0.5 19.5 0.874142 19.5 1.33333V2.781C19.5 3.18278 19.3446 3.55783 19.0606 3.84162L19.0604 3.84178L12.3131 10.5891L12.1667 10.7356V10.9427V17.3333C12.1667 17.3965 12.1311 17.4541 12.0747 17.4825C12.0746 17.4825 12.0745 17.4825 12.0745 17.4826L8.07536 19.4821C8.0752 19.4822 8.07503 19.4823 8.07486 19.4824C8.05072 19.4943 8.02532 19.5 8 19.5C7.97059 19.5 7.93981 19.4919 7.91167 19.4747C7.86315 19.4444 7.83333 19.3909 7.83333 19.3333V10.9427ZM1.33333 0.833333H0.833333V1.33333V2.781C0.833333 3.09146 0.955241 3.38635 1.17511 3.60622L8.11778 10.5489C8.14912 10.5802 8.16667 10.6228 8.16667 10.6667V18.2547V19.0637L8.89027 18.7019L11.5569 17.3685L11.8333 17.2304V16.9213V10.6667C11.8333 10.6228 11.8509 10.5802 11.8822 10.5489L18.8249 3.60622C19.0448 3.38635 19.1667 3.09146 19.1667 2.781V1.33333V0.833333H18.6667H1.33333Z" fill="#0A1828" stroke="#0A1828" />
                </svg>