<svg xmlns="http://www.w3.org/2000/svg" width="19" height="24" viewBox="0 0 19 24" fill="none">
  <path d="M2.51663 4.63929L5.2685 5.85053C4.72293 6.65687 4.43814 7.58331 4.43814 8.55436C4.43814 11.2102 6.5964 13.3924 9.27622 13.3924C11.956 13.3924 14.1143 11.2342 14.1143 8.55436C14.1143 7.6039 13.8295 6.65687 13.3079 5.87455L15.727 4.73537V9.33669L14.9927 10.9013C14.9447 11.0214 14.9447 11.1381 15.0167 11.2342C15.0888 11.3303 15.2054 11.3989 15.3255 11.3989H16.7255C16.8456 11.3989 16.9622 11.3508 17.0103 11.2342C17.0823 11.1381 17.0823 11.0214 17.0343 10.9013L16.3927 9.33669V4.42655C16.3927 4.23784 16.3686 4.09372 16.0358 3.95304C15.9637 3.92902 9.44092 1.03647 9.44092 1.03647C9.34827 0.988431 9.25563 0.988431 9.15955 1.03304L2.51663 3.97706C2.39997 4.0251 2.30389 4.16578 2.30389 4.30989C2.30389 4.45057 2.37595 4.57067 2.51663 4.63929ZM13.3834 8.55436C13.3834 10.8327 11.534 12.6822 9.25563 12.6822C6.97727 12.6822 5.12782 10.8327 5.12782 8.55436C5.12782 7.67596 5.41262 6.84559 5.91015 6.13532L9.13553 7.58331C9.18357 7.60733 9.23161 7.60733 9.27622 7.60733C9.32425 7.60733 9.37229 7.60733 9.4169 7.58331L12.5942 6.15934C13.1227 6.86961 13.3834 7.69998 13.3834 8.55436ZM15.8745 10.6886L16.0392 10.3318L16.1799 10.6886H15.8745ZM9.30367 1.74674L15.0682 4.30989L9.30367 6.87304L3.53915 4.30989L9.30367 1.74674Z" fill="#178582" stroke="#178582" stroke-width="0.4"/>
  <path d="M9.3963 14.2469C4.77096 14.2469 1 18.0178 1 22.6432C1 22.8319 1.1647 23 1.35685 23H17.4392C17.6279 23 17.796 22.8353 17.796 22.6432C17.796 18.0213 14.0216 14.2469 9.3963 14.2469ZM1.73429 22.2898C1.92301 18.21 5.29251 14.9606 9.42031 14.9606C13.5481 14.9606 16.8936 18.234 17.0823 22.2898H1.73429Z" fill="#178582" stroke="#178582" stroke-width="0.8"/>
</svg>