<svg width="19" height="20" viewBox="0 0 19 20" fill="none" xmlns="http://www.w3.org/2000/svg">
<path d="M9.5 19.6241C4.26382 19.6241 0 15.3603 0 10.1241C0 4.88797 4.26382 0.624146 9.5 0.624146C14.7362 0.624146 19 4.88797 19 10.1241C19 15.3603 14.7362 19.6241 9.5 19.6241ZM9.5 1.74179C4.87853 1.74179 1.11765 5.50267 1.11765 10.1241C1.11765 14.7456 4.87853 18.5065 9.5 18.5065C14.1215 18.5065 17.8824 14.7456 17.8824 10.1241C17.8824 5.50267 14.1215 1.74179 9.5 1.74179Z" fill="#5E6278"/>
<path d="M10.0588 14.0359H8.9412V11.2418H9.50002C11.0424 11.2418 12.2941 9.99007 12.2941 8.44771C12.2941 6.90536 11.0424 5.6536 9.50002 5.6536C7.95767 5.6536 6.7059 6.90536 6.7059 8.44771H5.58826C5.58826 6.29066 7.34296 4.53595 9.50002 4.53595C11.6571 4.53595 13.4118 6.29066 13.4118 8.44771C13.4118 10.4148 11.9533 12.0465 10.0588 12.3204V14.0359Z" fill="#5E6278"/>
<path d="M9.49999 14.5947C9.19263 14.5947 8.94116 14.8462 8.94116 15.1536C8.94116 15.4609 9.19263 15.7124 9.49999 15.7124C9.80734 15.7124 10.0588 15.4609 10.0588 15.1536C10.0588 14.8462 9.80734 14.5947 9.49999 14.5947Z" fill="#5E6278"/>
</svg>
