<svg width="12" height="16" viewBox="0 0 12 16" fill="none" xmlns="http://www.w3.org/2000/svg">
<path d="M3.74666 10.091C3.56712 10.091 3.40554 10.0191 3.26192 9.85757C3.02852 9.58827 3.01057 9.24716 3.24396 8.97786C3.4235 8.74446 3.78256 8.54698 4.28526 8.36744C4.46479 8.31358 4.66228 8.24177 4.85976 8.20586C4.98544 7.97247 5.11111 7.72112 5.21883 7.45182C5.32655 7.20048 5.41632 6.96708 5.48813 6.73369C5.20088 6.24895 4.93158 5.67444 4.94953 5.22561C4.94953 4.83064 5.18292 4.57929 5.55994 4.52543C5.90105 4.48952 6.1524 4.6511 6.26012 4.97426C6.40375 5.40514 6.26012 6.06942 6.09854 6.64392C6.24217 6.87732 6.40375 7.11071 6.60123 7.3441C6.76281 7.54159 6.90644 7.72112 7.06802 7.90066C7.69639 7.90066 8.28885 7.95452 8.64791 8.152C8.97107 8.33154 9.09675 8.60083 9.00698 8.92399C8.89926 9.28306 8.61201 9.46259 8.25294 9.40873C7.78615 9.35487 7.24755 8.90604 6.83463 8.47516C6.54737 8.49311 6.22421 8.51107 5.90105 8.56493C5.66766 8.60083 5.43427 8.63674 5.21883 8.6906C5.14702 8.83423 5.05725 8.9599 4.98544 9.06762C4.68023 9.51645 4.39298 9.82166 4.12368 9.98324C3.998 10.0551 3.87233 10.091 3.74666 10.091ZM4.44684 8.90604C4.06982 9.03171 3.78256 9.1933 3.65689 9.33692C3.60303 9.39078 3.60303 9.42669 3.67484 9.51645C3.71075 9.55236 3.7287 9.58827 3.87233 9.51645C4.03391 9.40873 4.24935 9.19329 4.44684 8.90604ZM7.64253 8.49312C7.91183 8.72651 8.14522 8.87014 8.32475 8.88809C8.39657 8.90604 8.43247 8.90604 8.48633 8.78037C8.50429 8.74446 8.50429 8.72651 8.39657 8.6547C8.23499 8.58288 7.96569 8.51107 7.64253 8.49312ZM5.8831 7.32615C5.82924 7.46978 5.77538 7.59545 5.73947 7.68522C5.68561 7.82884 5.6138 7.95452 5.55994 8.08019C5.64971 8.06224 5.73947 8.04428 5.82924 8.04428C6.00877 8.02633 6.18831 7.99042 6.36784 7.99042C6.27807 7.8827 6.20626 7.79294 6.17035 7.73908C6.09854 7.63136 5.99082 7.48773 5.8831 7.32615ZM5.63176 5.08198C5.55994 5.09994 5.50608 5.09994 5.50608 5.24356C5.50608 5.4231 5.5779 5.67444 5.72152 5.97965C5.79333 5.62058 5.81129 5.33333 5.75743 5.17175C5.72152 5.08198 5.70357 5.08198 5.63176 5.08198Z" fill="#BFA181" stroke="#BFA181" stroke-width="0.1"/>
<path d="M3.5498 11.3296C3.5498 11.168 3.65752 11.0962 3.7832 11.0962H4.37566C4.75268 11.0962 5.11174 11.3296 5.11174 11.8143C5.11174 12.2273 4.8604 12.5325 4.39361 12.5325H4.03454V12.9813C4.03454 13.1429 3.92682 13.2326 3.80115 13.2326C3.65752 13.2326 3.56776 13.1429 3.56776 12.9813V11.3296H3.5498ZM4.03454 12.1016H4.28589C4.48338 12.1016 4.60905 11.958 4.60905 11.8143C4.60905 11.6168 4.48338 11.5271 4.28589 11.5271H4.03454V12.1016Z" fill="#BFA181" stroke="#BFA181" stroke-width="0.1"/>
<path d="M5.36279 11.3296C5.36279 11.168 5.47051 11.0962 5.59619 11.0962H6.17069C6.79906 11.0962 7.15813 11.5989 7.15813 12.1375C7.15813 12.8377 6.69134 13.2147 6.17069 13.2147H5.59619C5.47051 13.2147 5.36279 13.1249 5.36279 12.9813V11.3296ZM5.84753 12.7659H6.09888C6.4759 12.7659 6.65543 12.5145 6.65543 12.1375C6.65543 11.7784 6.4759 11.545 6.11683 11.545H5.84753V12.7659Z" fill="#BFA181" stroke="#BFA181" stroke-width="0.1"/>
<path d="M7.44482 11.3296C7.44482 11.168 7.55254 11.0962 7.67822 11.0962H8.4143C8.55793 11.0962 8.6477 11.186 8.6477 11.3116C8.6477 11.4553 8.55793 11.5271 8.4143 11.5271H7.91161V11.9041H8.34249C8.48612 11.9041 8.57588 11.9939 8.57588 12.1195C8.57588 12.2632 8.48612 12.335 8.34249 12.335H7.91161V12.9454C7.91161 13.107 7.80389 13.1967 7.67822 13.1967C7.53459 13.1967 7.44482 13.107 7.44482 12.9454V11.3296Z" fill="#BFA181" stroke="#BFA181" stroke-width="0.1"/>
<path d="M10.7127 4.74077C10.5691 4.74077 10.4434 4.86644 10.4434 5.01007V14.0944C10.4434 14.3997 10.1921 14.651 9.88689 14.651H2.09515C1.78995 14.651 1.5386 14.3997 1.5386 14.0944V2.10163C1.5386 1.79642 1.78995 1.54508 2.09515 1.54508H7.7684V3.21473C7.7684 3.75333 8.21724 4.20217 8.75584 4.20217H10.6948C10.8025 4.20217 10.9102 4.13035 10.9461 4.04059C10.982 3.95082 10.9641 3.82515 10.8923 3.73538L8.23519 1.07829C8.16337 1.00648 8.07361 0.988522 8.0018 1.00648H2.11311C1.50269 1.00648 1 1.50917 1 2.11958V14.1124C1 14.7228 1.50269 15.2255 2.11311 15.2255H9.88689C10.4973 15.2255 11 14.7228 11 14.1124V5.01007C10.982 4.86644 10.8743 4.74077 10.7127 4.74077ZM8.75584 3.64561C8.50449 3.64561 8.307 3.44813 8.307 3.19678V1.90414L10.0485 3.64561H8.75584Z" fill="#BFA181" stroke="#BFA181" stroke-width="0.1"/>
</svg>
