<svg width="10" height="10" viewBox="0 0 10 10" fill="none" xmlns="http://www.w3.org/2000/svg">
<path d="M4.99965 9.62675C4.86723 9.62752 4.73758 9.58884 4.62724 9.51564C4.51689 9.44244 4.43084 9.33804 4.38006 9.21574C4.32929 9.09344 4.31608 8.9588 4.34213 8.82897C4.36817 8.69913 4.43229 8.58 4.52631 8.48675L8.01298 5.00009L4.52631 1.51342C4.40214 1.38851 4.33245 1.21954 4.33245 1.04342C4.33245 0.867296 4.40214 0.698328 4.52631 0.57342C4.58829 0.510934 4.66202 0.461338 4.74326 0.427492C4.8245 0.393646 4.91164 0.376221 4.99965 0.376221C5.08765 0.376221 5.17479 0.393646 5.25603 0.427492C5.33727 0.461338 5.411 0.510934 5.47298 0.57342L9.42631 4.52675C9.4893 4.5885 9.53942 4.66213 9.57375 4.74338C9.60808 4.82463 9.62595 4.91188 9.62631 5.00009C9.62595 5.08829 9.60808 5.17555 9.57375 5.2568C9.53942 5.33805 9.4893 5.41168 9.42631 5.47342L5.47298 9.42675C5.41124 9.48975 5.33761 9.53986 5.25636 9.57419C5.17511 9.60852 5.08785 9.62639 4.99965 9.62675Z" fill="#A1A5B7"/>
<path opacity="0.3" d="M8.95971 5.66683H1.03971C0.862903 5.66683 0.693333 5.59659 0.568309 5.47157C0.443285 5.34654 0.373047 5.17697 0.373047 5.00016C0.373047 4.82335 0.443285 4.65378 0.568309 4.52876C0.693333 4.40373 0.862903 4.3335 1.03971 4.3335H8.95971C9.13653 4.3335 9.30609 4.40373 9.43112 4.52876C9.55614 4.65378 9.62638 4.82335 9.62638 5.00016C9.62638 5.17697 9.55614 5.34654 9.43112 5.47157C9.30609 5.59659 9.13653 5.66683 8.95971 5.66683Z" fill="#A1A5B7"/>
</svg>