<svg xmlns="http://www.w3.org/2000/svg" width="64" height="80" viewBox="0 0 64 80" fill="none">
  <path d="M60.9043 15.9832C40.4627 13.8801 34.5741 2.10305 34.3218 1.59832C33.817 0.588854 32.8917 0 31.7981 0C30.7045 0 29.6951 0.672976 29.2744 1.59832C28.938 2.10305 22.9653 13.8801 2.52366 15.9832C1.09359 16.1514 0 17.3291 0 18.8433V39.4532C0 63.6803 29.1903 78.9905 30.4522 79.6635C30.8728 79.8318 31.2934 80 31.714 80C32.1346 80 32.6393 79.9159 32.9758 79.6635C34.2376 78.9905 63.428 63.7645 63.428 39.4532V18.7592C63.5121 17.3291 62.3344 16.1514 60.9043 15.9832ZM57.7918 39.4532C57.7918 57.5394 37.1819 70.6625 31.714 73.8591C26.2461 70.6625 5.63617 57.6236 5.63617 39.4532V21.2829C20.3575 19.1798 28.0967 12.2818 31.714 7.90747C35.3312 12.2818 43.0704 19.1798 57.7918 21.2829V39.4532Z" fill="#178582"/>
  <path d="M20.7783 30.6214C20.7783 35.6687 24.2273 39.8748 28.854 41.1367V61.41C28.854 63.0084 30.1159 64.2702 31.7142 64.2702C33.3125 64.2702 34.5743 63.0084 34.5743 61.41V58.2134H38.1074C39.7058 58.2134 40.9676 56.9516 40.9676 55.3533C40.9676 53.7549 39.7058 52.4931 38.1074 52.4931H34.5743V41.1367C39.201 39.8748 42.65 35.6687 42.65 30.6214C42.65 24.5646 37.771 19.6855 31.7142 19.6855C25.6574 19.7697 20.7783 24.6487 20.7783 30.6214ZM36.9297 30.6214C36.9297 33.4816 34.5743 35.837 31.7142 35.837C28.854 35.837 26.4986 33.4816 26.4986 30.6214C26.4986 27.7613 28.854 25.4058 31.7142 25.4058C34.5743 25.4058 36.9297 27.7613 36.9297 30.6214Z" fill="#178582"/>
</svg>