<svg width="19" height="21" viewBox="0 0 19 21" fill="none" xmlns="http://www.w3.org/2000/svg">
<path d="M13.0381 19.0678C13.456 19.0678 13.8182 19.4578 13.8182 19.9315C13.8182 20.4051 13.4839 20.7951 13.0381 20.7951H3.0088C1.3651 20.7951 0 19.4021 0 17.6191V3.80095C0 2.04582 1.3651 0.625 3.0088 0.625H13.0381C13.456 0.625 13.8182 1.01503 13.8182 1.48863C13.8182 1.96224 13.4839 2.35227 13.0381 2.35227H3.0088C2.17302 2.35227 1.53226 3.02089 1.53226 3.80095V17.6191C1.53226 18.3992 2.17302 19.0678 3.0088 19.0678H13.0381ZM16.0469 11.518H7.43842C7.15982 11.518 6.90909 11.1279 6.90909 10.6543C6.90909 10.1807 7.13197 9.79069 7.43842 9.79069H16.0469L12.9267 6.67045C12.5924 6.33614 12.5924 5.77896 12.9267 5.44465C13.261 5.11034 13.8182 5.11034 14.1525 5.44465L18.7493 10.0414C19.0836 10.3757 19.0836 10.9329 18.7493 11.2672L14.1525 15.864C13.8182 16.1983 13.261 16.1983 12.9267 15.864C12.5924 15.5297 12.5924 14.9725 12.9267 14.6382L16.0469 11.518Z" fill="#C70A0A"/>
</svg>
