<svg width="6" height="10" viewBox="0 0 6 10" fill="none" xmlns="http://www.w3.org/2000/svg">
<path d="M5.72652 4.35124L1.33057 0.215047C0.811659 -0.273086 4.82241e-07 0.12363 5.14624e-07 0.864453L8.76221e-07 9.13683C-0.0001312 9.30263 0.0441827 9.46495 0.127637 9.60437C0.211091 9.74378 0.330147 9.85437 0.470549 9.92289C0.610949 9.99142 0.766744 10.015 0.919274 9.99074C1.0718 9.9665 1.21461 9.8955 1.33058 9.78624L5.72572 5.65005C5.81187 5.5691 5.88091 5.46927 5.92822 5.35726C5.97553 5.24526 6 5.12366 6 5.00064C6 4.87763 5.97553 4.75603 5.92822 4.64402C5.88091 4.53202 5.81187 4.43219 5.72572 4.35124L5.72652 4.35124Z" fill="#111827"/>
</svg>
