<svg xmlns="http://www.w3.org/2000/svg" width="3" height="13" viewBox="0 0 3 13" fill="none">
  <path fill-rule="evenodd" clip-rule="evenodd" d="M0 1.35383C0 2.10158 0.606258 2.70784 1.354 2.70784C2.10189 2.70784 2.70801 2.10158 2.70801 1.35383C2.70801 0.606086 2.10189 -0.000172615 1.354 -0.000172615C0.606258 -0.000172615 0 0.606086 0 1.35383ZM0 6.16935C0 6.91709 0.606258 7.52335 1.354 7.52335C2.10189 7.52335 2.70801 6.91709 2.70801 6.16935C2.70801 5.42146 2.10189 4.81534 1.354 4.81534C0.606258 4.81534 0 5.42146 0 6.16935ZM1.354 9.63072C2.10189 9.63072 2.70801 10.237 2.70801 10.9849C2.70801 11.7326 2.10189 12.3389 1.354 12.3389C0.606258 12.3389 0 11.7326 0 10.9849C0 10.237 0.606258 9.63072 1.354 9.63072Z" fill="white"/>
</svg>