<svg width="17" height="13" viewBox="0 0 17 13" fill="none" xmlns="http://www.w3.org/2000/svg">
<path d="M9.42606 12H2.90828C1.85505 12 1 11.145 1 10.0917V2.90559C1 1.85523 1.85505 1 2.90828 1H9.42606C10.4793 1 11.3343 1.85505 11.3343 2.90559V10.0915C11.3345 11.145 10.4795 12 9.42606 12ZM2.90828 1.7249C2.25699 1.7249 1.72472 2.2543 1.72472 2.90559V10.0915C1.72472 10.7428 2.25699 11.2751 2.90828 11.2751H9.42606C10.0774 11.2751 10.6096 10.7428 10.6096 10.0915V2.90559C10.6096 2.2543 10.0774 1.7249 9.42606 1.7249H2.90828Z" fill="#434343" stroke="#434343" stroke-width="0.5"/>
<path d="M14.7641 11.1165C14.532 11.1165 14.3026 11.04 14.1073 10.8928L12.3207 9.52526C12.1168 9.36675 11.9922 9.11758 11.9922 8.8571V4.14294C11.9922 3.87958 12.1139 3.63041 12.3207 3.4719L14.1073 2.1072C14.4358 1.8609 14.8745 1.81548 15.2427 1.99392C15.6165 2.17793 15.8486 2.55169 15.8486 2.96799V10.0322C15.8486 10.4483 15.6165 10.8194 15.2456 11.0034C15.0927 11.0797 14.9284 11.1165 14.7641 11.1165ZM14.7641 2.60823C14.6877 2.60823 14.6141 2.63373 14.5489 2.68184L12.7623 4.04941C12.734 4.06916 12.7171 4.10327 12.7171 4.14276V8.85692C12.7171 8.89372 12.7341 8.92765 12.7623 8.94757L14.5489 10.3151C14.6593 10.4029 14.7952 10.4142 14.9255 10.3519C15.0501 10.2925 15.1237 10.1708 15.1237 10.032V2.96781C15.1237 2.82617 15.0472 2.70733 14.9226 2.64504C14.8718 2.61954 14.818 2.60823 14.7641 2.60823Z" fill="#434343" stroke="#434343" stroke-width="0.5"/>
</svg>
