<svg width="32" height="32" viewBox="0 0 32 32" fill="none" xmlns="http://www.w3.org/2000/svg">
<rect width="32" height="32" rx="16" fill="#EA5455" fill-opacity="0.12"/>
<mask id="mask0_112_3698" style="mask-type:luminance" maskUnits="userSpaceOnUse" x="0" y="0" width="32" height="32">
<rect width="32" height="32" rx="16" fill="white"/>
</mask>
<g mask="url(#mask0_112_3698)">
<path fill-rule="evenodd" clip-rule="evenodd" d="M19.75 7.75H12.25C10.975 7.75 10 8.725 10 10V22C10 23.275 10.975 24.25 12.25 24.25H19.75C21.025 24.25 22 23.275 22 22V10C22 8.725 21.025 7.75 19.75 7.75ZM20.5 22C20.5 22.45 20.2 22.75 19.75 22.75H12.25C11.8 22.75 11.5 22.45 11.5 22V10C11.5 9.55 11.8 9.25 12.25 9.25H19.75C20.2 9.25 20.5 9.55 20.5 10V22ZM16.75 20.5C16.75 20.35 16.675 20.125 16.525 19.975C16.225 19.675 15.775 19.675 15.475 19.975C15.4375 20.0125 15.4188 20.05 15.4 20.0875C15.3813 20.125 15.3625 20.1625 15.325 20.2C15.25 20.275 15.25 20.425 15.25 20.5C15.25 20.725 15.325 20.875 15.475 21.025C15.55 21.1 15.625 21.175 15.7 21.175C15.775 21.25 15.925 21.25 16 21.25C16.225 21.25 16.375 21.175 16.525 21.025C16.675 20.875 16.75 20.725 16.75 20.5Z" fill="black"/>
<mask id="mask1_112_3698" style="mask-type:luminance" maskUnits="userSpaceOnUse" x="10" y="7" width="12" height="18">
<path fill-rule="evenodd" clip-rule="evenodd" d="M19.75 7.75H12.25C10.975 7.75 10 8.725 10 10V22C10 23.275 10.975 24.25 12.25 24.25H19.75C21.025 24.25 22 23.275 22 22V10C22 8.725 21.025 7.75 19.75 7.75ZM20.5 22C20.5 22.45 20.2 22.75 19.75 22.75H12.25C11.8 22.75 11.5 22.45 11.5 22V10C11.5 9.55 11.8 9.25 12.25 9.25H19.75C20.2 9.25 20.5 9.55 20.5 10V22ZM16.75 20.5C16.75 20.35 16.675 20.125 16.525 19.975C16.225 19.675 15.775 19.675 15.475 19.975C15.4375 20.0125 15.4188 20.05 15.4 20.0875C15.3813 20.125 15.3625 20.1625 15.325 20.2C15.25 20.275 15.25 20.425 15.25 20.5C15.25 20.725 15.325 20.875 15.475 21.025C15.55 21.1 15.625 21.175 15.7 21.175C15.775 21.25 15.925 21.25 16 21.25C16.225 21.25 16.375 21.175 16.525 21.025C16.675 20.875 16.75 20.725 16.75 20.5Z" fill="white"/>
</mask>
<g mask="url(#mask1_112_3698)">
<rect x="7" y="7" width="18" height="18" fill="#EA5455"/>
</g>
</g>
</svg>
